<svg width="316" height="438" viewBox="0 0 316 438" fill="none" xmlns="http://www.w3.org/2000/svg">
	<path d="M334.097 277.994C334.123 277.792 334.14 277.599 334.167 277.397C334.219 276.906 333.86 276.467 333.491 276.213C331.106 274.538 328.992 274.95 326.106 275.082C321.361 275.301 316.607 275.485 311.862 275.634C302.793 275.924 293.723 276.09 284.645 276.143C266.068 276.239 247.5 275.397 228.932 275.415C228.019 275.415 227.844 276.415 228.326 276.932C228.081 276.985 227.861 277.143 227.8 277.45C225.09 290.975 231.291 304.587 241.044 313.867C252.096 324.392 267.516 328.69 282.488 328.953C296.644 329.208 312.985 327.103 322.957 316.025C331.904 306.087 334.842 292.132 335.175 279.134C335.193 278.406 334.667 278.037 334.097 277.994ZM326.624 278.108C326.58 278.257 326.562 278.415 326.589 278.59C328.281 290.168 324.387 301.912 316.353 310.411C307.766 319.498 295.943 322.533 283.698 321.814C271.313 321.095 257.859 318.2 248.614 309.403C239.834 301.044 235.905 289.738 236.01 277.818C250.447 278.862 264.989 278.95 279.444 278.941C283.049 278.95 314.397 277.906 326.624 278.108ZM321.642 313.464C312.397 324.296 297.048 326.34 283.558 326.34C255.394 326.322 227.344 308.622 229.265 277.651C229.274 277.494 229.221 277.362 229.151 277.248C230.949 277.423 232.738 277.564 234.536 277.704C233.194 289.931 238.378 302.386 247.193 310.824C257.341 320.542 272.427 323.629 286.066 323.98C311.397 324.638 332.334 304.026 328.632 278.16C330.413 278.23 331.474 278.344 331.492 278.52C331.544 279.353 332.141 279.757 332.746 279.748C332.316 291.641 329.544 304.201 321.642 313.464Z" fill="#B4CCB4" />
	<path d="M258.85 287.422C258.096 286.221 256.324 287.273 256.955 288.528C257.341 289.291 257.552 290.098 257.499 290.957C257.438 291.861 257.131 292.553 257.587 293.413C257.859 293.931 258.674 294.185 259.174 293.825C261.078 292.466 259.867 289.054 258.85 287.422Z" fill="#B4CCB4" />
	<path d="M294.907 291.001C294.67 289.957 294.986 288.896 294.828 287.843C294.802 287.642 294.828 287.422 294.828 287.291C294.828 287.247 294.828 287.203 294.828 287.159C294.828 286.712 293.697 286.58 293.609 287.045C293.557 287.3 292.951 287.563 292.837 287.835C292.715 288.124 292.583 288.545 292.548 288.87C292.478 289.528 292.425 290.203 292.451 290.869C292.504 292.071 292.425 293.597 293.39 294.431C294.065 295.018 295.065 294.79 295.346 293.913C295.67 292.887 295.135 292.018 294.907 291.001Z" fill="#B4CCB4" />
	<path d="M314.475 286.58C314.028 285.826 312.651 286.326 313.002 287.203C313.423 288.256 313.668 289.554 313.756 290.685C313.844 291.79 313.519 292.904 313.809 293.966C314.072 294.922 315.484 295.15 315.967 294.246C317.23 291.922 315.695 288.607 314.475 286.58Z" fill="#B4CCB4" />
	<path d="M307.161 301.711C306.976 300.316 304.81 300.219 304.898 301.711C305.02 303.903 304.775 306.614 305.705 308.631C306.099 309.49 307.459 309.227 307.669 308.377C308.187 306.315 307.441 303.78 307.161 301.711Z" fill="#B4CCB4" />
	<path d="M276.295 302.061C275.628 301.07 274.19 301.921 274.699 302.991C275.33 304.307 275.734 305.719 275.865 307.175C275.979 308.42 275.672 309.657 275.962 310.867C276.199 311.841 277.672 312.069 278.146 311.157C279.549 308.429 277.856 304.386 276.295 302.061Z" fill="#B4CCB4" />
	<path d="M298.355 351.89C298.126 350.881 297.898 349.881 297.653 348.881C297.407 347.855 297.337 346.978 296.425 346.338C295.872 345.943 295.214 346.276 294.899 346.767C281.365 348.171 268.515 345.136 256.894 338.075C250.649 334.286 242.728 324.752 234.799 328.725C233.238 327.638 232.151 326.164 231.668 324.305C231.326 323.007 231.344 321.638 230.475 320.533C229.195 318.902 226.756 318.709 224.993 319.63C220.003 322.244 222.844 328.725 226.116 331.769C226.063 331.865 226.028 331.979 226.046 332.12C227.274 346.399 243.579 354.732 255.78 358.337C268.068 361.968 288.715 364.38 297.846 352.995C298.214 352.828 298.477 352.451 298.355 351.89ZM257.455 356.398C245.228 352.986 231.545 345.706 227.783 332.743C228.493 332.637 229.081 331.76 228.625 331.067C227.519 329.374 225.792 328.076 225.151 326.094C224.581 324.34 225.634 320.068 228.221 321.814C229.16 322.445 229.133 323.893 229.458 324.901C229.703 325.647 230.072 326.366 230.502 327.024C231.265 328.164 232.23 329.085 233.352 329.813C233.107 330.532 233.852 331.374 234.747 330.971C242.036 327.708 248.307 335.541 253.78 339.093C257.788 341.698 262.042 343.891 266.498 345.618C275.585 349.144 285.242 350.513 294.802 348.408C294.943 348.837 295.153 349.258 295.32 349.688C295.565 350.311 295.811 350.934 296.065 351.556C287.373 361.573 268.866 359.582 257.455 356.398Z" fill="#B4CCB4" />
	<path d="M278.751 352.565C261.613 353.083 246.211 347.162 234.537 334.418C234.23 334.084 233.773 334.567 234.045 334.909C244.772 347.837 261.911 355.319 278.751 353.407C279.278 353.346 279.304 352.548 278.751 352.565Z" fill="#B4CCB4" />
	<path d="M356.849 130.727C356.647 124.851 352.069 120 346.376 119.825C347.578 114.913 344.754 110.168 339.78 108.879C341.324 99.827 330.43 97.564 324.001 102.02C322.379 100.818 320.467 100.037 318.405 99.7919C314.783 99.3621 311.52 102.292 308.301 101.686C305.81 101.222 303.951 98.6516 300.872 98.3622C293.917 97.7131 288.899 102.599 287.575 108.923C284.374 108.519 281.804 109.615 280.076 111.431C279.997 111.422 279.935 111.396 279.857 111.396C275.962 111.598 272.498 113.571 271.094 117.422C270.647 118.65 270.945 119.737 270.621 120.939C269.91 123.57 268.919 123.509 267.182 124.921C265.446 126.333 263.805 127.044 262.665 129.14C261.683 130.929 261.271 133.043 261.499 135.069C261.665 136.595 263.077 138.613 262.849 139.955C262.683 140.972 260.201 143.156 259.718 144.419C258.762 146.91 258.683 149.717 258.964 152.331C259.376 156.172 260.902 160.76 264.235 163.066C265.832 164.171 267.393 164.592 269.34 164.382C270.428 164.259 271.55 163.347 272.594 163.286C278.05 162.944 275.857 164.189 277.857 166.11C284.856 172.811 293.531 176.635 302.468 171.732C305.722 172.644 306.477 174.951 308.02 178.486C307.959 178.881 308.117 179.275 308.468 179.477C308.477 179.503 308.485 179.521 308.503 179.547C308.748 180.073 309.45 179.959 309.739 179.565C312.099 179.354 314.423 178.319 316.66 177.618C319.484 176.732 322.308 175.855 325.124 174.925C325.913 174.67 326.369 173.548 325.65 172.934C324.028 171.557 322.826 169.873 321.773 168.066C330.974 166.031 339.237 160.233 343.815 151.883C344.885 149.927 345.666 147.743 346.06 145.551C351.841 143.016 357.068 137.385 356.849 130.727ZM288.233 111.528C289.075 111.738 289.689 111.142 289.785 110.352C290.724 102.607 297.837 99.0288 304.468 102.265C305.582 102.809 307.441 104.634 308.933 104.783C310.003 104.888 310.669 104.186 311.573 103.818C315.467 102.204 319.414 102.239 322.282 104.107C322.361 104.239 322.493 104.327 322.642 104.362C324.563 105.765 325.957 108.045 326.396 111.282C326.483 111.913 327.308 112.282 327.861 112.115C331.43 110.624 333.395 111.887 333.763 115.904C335.342 117.281 335.974 118.694 335.675 120.132C332.316 117.966 327.72 117.799 323.949 121.062C322.835 117.667 320.335 115.115 316.677 113.869C314.362 113.08 311.915 113.089 309.538 113.554C305.994 114.247 302.854 117.466 299.565 117.904C295.048 118.501 291.829 115.501 287.593 119.474C286.163 120.807 285.338 122.448 284.996 124.175C276.199 121.334 279.576 109.387 288.233 111.528ZM285.426 169.68C282.479 168.092 280.76 165.882 278.813 163.277C278.225 162.487 278.085 161.733 277.234 161.128C274.682 159.295 272.954 161.338 270.41 161.637C259.543 162.908 258.587 145.384 265.533 141.042C266.025 140.735 266.34 139.955 265.954 139.437C263.726 137.025 263.306 133.99 264.691 130.341C266.288 128.061 268.323 126.702 270.787 126.237C271.138 125.859 271.884 125.807 272.27 125.386C272.734 124.877 273.006 123.561 273.129 123.202C273.252 122.456 273.199 121.711 272.962 120.956C273.111 117.036 274.927 114.711 278.392 113.966C276.471 118.316 278.032 124.088 284.654 125.552C284.724 125.57 284.777 125.561 284.838 125.561C284.768 127.017 284.996 128.508 285.514 129.92C280.584 130.324 276.752 134.525 276.199 139.639C275.497 146.086 280.172 151.296 284.9 155.058C282.111 158.909 284.286 163.408 288.101 166.198C291.11 168.408 295.592 170.513 299.46 171.223C294.811 172.522 289.838 172.057 285.426 169.68ZM336.009 157.839C331.509 162.049 326.089 164.505 320.133 165.785C320.01 165.785 319.888 165.812 319.782 165.873C318.318 166.206 318.791 168.241 320.124 168.347C320.87 170.039 321.817 171.583 322.87 173.118C320.563 173.785 318.256 174.46 315.958 175.153C313.757 175.811 311.274 176.24 309.231 177.337C308.31 174.732 307.389 172.118 306.477 169.513C306.249 168.855 305.67 168.531 304.986 168.662C300.547 169.522 296.793 167.987 293.004 166.048C290.136 164.584 282.461 160.795 287.593 155.751C288.224 155.129 287.97 154.243 287.338 153.769C284.128 151.375 280.786 148.445 279.514 144.524C277.725 139.042 280.681 131.64 287.496 132.49C288.487 132.613 289.022 131.333 288.592 130.587C284.47 123.377 292.101 116.72 298.793 121.176C299.127 121.395 299.723 121.43 300.047 121.176C306.108 116.536 320.528 111.01 322.107 123.43C322.221 124.333 323.414 125.175 324.159 124.281C330.106 117.132 341.298 123.342 337.114 132.245C336.789 132.938 337.035 133.789 337.833 134.008C350.42 137.455 341.666 152.541 336.009 157.839ZM346.332 142.753C346.411 138.183 344.552 133.964 339.701 132.113C341.14 127.868 339.877 124 337.368 121.483C340.754 116.01 336.702 110.642 330.904 109.273C329.395 108.923 329.352 109.475 328.431 108.782C328.168 108.58 326.983 105.291 326.834 105.063C326.405 104.388 325.913 103.783 325.369 103.221C330.737 101.213 339.903 100.029 337.281 109.458C337.061 110.256 337.667 110.835 338.395 110.922C343.517 112.256 345.28 115.439 343.692 120.474C343.368 121.184 343.727 122.377 344.71 122.255C352.341 121.299 356.323 129.877 353.165 135.964C351.63 138.955 349.06 140.963 346.332 142.753Z" fill="#B4CCB4" />
	<path d="M265.209 169.25C259.139 168.461 256.464 174.548 253.341 178.6C248.973 184.275 243.869 185.52 236.861 184.126C233.563 183.468 230.694 182.924 227.379 183.915C227.221 183.959 227.081 184.038 226.976 184.126C223.739 181.521 218.547 181.257 215.556 184.406C215.538 184.398 215.529 184.38 215.512 184.362C214.117 183.389 213.152 182.117 212.994 180.38C212.933 179.67 212.328 179.214 211.635 179.521C209.539 180.442 206.635 181.924 207.898 184.582C208.977 186.845 210.933 188.941 213.214 190.064C212.644 192.827 213.424 195.598 215.336 197.633C214.573 210.325 232.107 219.034 242.693 219.912C256.271 221.034 269.699 212.956 275.436 200.659C279.962 190.967 279.312 171.092 265.209 169.25ZM214.617 189.95C214.617 189.906 214.608 189.879 214.6 189.844C214.696 189.599 214.678 189.327 214.459 189.143C213.012 187.88 211.591 186.704 210.539 185.064C210.03 184.275 209.486 183.626 210.17 182.828C210.451 182.503 210.916 182.178 211.398 181.88C211.854 183.582 212.872 185.099 214.468 185.994C214.757 186.152 215.029 186.161 215.266 186.073C215.591 186.529 216.222 186.731 216.81 186.239C219.143 184.292 222.204 183.766 224.686 185.213C223.151 185.722 221.757 186.608 221.064 188.16C220.687 189.002 220.599 189.871 220.748 190.678C219.81 190.309 218.915 189.853 218.012 189.248C217.292 188.766 216.398 189.318 216.327 190.125C216.187 191.792 216.047 193.458 215.906 195.125C214.845 193.669 214.459 191.941 214.617 189.95ZM267.577 172.539C275.216 175.977 276.857 186.853 275.234 193.984C272.541 205.843 262.016 215.263 250.114 217.236C238.299 219.201 219.353 212.044 216.976 198.589C217.424 198.519 217.81 198.194 217.862 197.607L218.354 192.002C219.739 192.739 221.169 193.248 222.792 193.555C223.967 193.774 224.809 192.335 223.721 191.572C220.441 189.274 225.739 187.099 227.37 186.88C227.888 186.81 228.177 186.353 228.212 185.889C233.65 184.564 238.431 187.862 243.851 187.388C247.316 187.081 250.184 185.336 252.648 182.968C256.867 178.898 259.578 168.934 267.577 172.539Z" fill="#B4CCB4" />
	<path d="M352.7 218.333C347.341 209.851 339.105 210.79 330.413 208.369C330.317 208.343 330.229 208.343 330.15 208.343C327.615 205.448 327.808 201.361 326.203 197.887C324.984 195.256 323.037 193.09 320.677 191.423C314.95 187.38 307.687 187.073 301.232 189.45C286.716 194.809 279.032 209.965 282.128 224.858C288.215 254.128 338.763 268.994 353.499 238.699C356.674 232.191 356.621 224.534 352.7 218.333ZM343.78 246.698C329.22 257.25 306.503 253.207 293.899 241.409C280.427 228.814 279.909 206.334 295.443 195.168C303.74 189.204 317.055 187.581 323.37 197.361C326.159 201.677 325.264 207.658 330.132 210.43C330.422 210.597 330.738 210.518 330.974 210.342C339.737 213.36 348.929 212.281 352.7 223.148C355.796 232.103 351.069 241.427 343.78 246.698Z" fill="#B4CCB4" />
	<path d="M350.692 222.35C347.92 214.868 336.79 211.333 329.483 211.351C329.475 211.342 329.475 211.333 329.466 211.325C322.58 206.097 324.115 195.528 314.871 192.546C307.863 190.283 300.828 193.511 296.048 198.677C290.645 204.527 286.014 213.553 286.751 221.718C287.479 229.788 292.864 236.726 298.978 241.655C311.967 252.145 333.843 256.864 345.683 241.927C349.341 237.305 352.902 228.332 350.692 222.35ZM349.35 229.981C347.604 237.875 343.043 244.26 335.597 247.593C321.616 253.847 304.468 246.874 295.031 235.7C289.777 229.481 287.014 222.096 289.215 214C291.163 206.816 296.644 198.212 303.468 194.897C311.783 190.844 319.291 194.782 322.738 202.738C324.238 206.202 325.466 209.316 328.475 211.553C328.282 211.833 328.422 212.316 328.869 212.36C338.412 213.298 352.095 217.578 349.35 229.981Z" fill="#B4CCB4" />
	<path d="M203.978 230.226C203.934 229.621 203.074 229.454 202.811 229.998C202.39 230.867 201.996 231.84 200.847 231.937C199.522 232.042 198.777 230.814 198.777 229.665C198.777 228.963 197.724 228.797 197.443 229.402C197.189 230.139 196.645 230.577 195.83 230.726C194.435 230.367 194.145 229.604 194.961 228.437C195.373 228.095 194.961 227.455 194.496 227.744C193.189 228.542 193.084 230.446 194.242 231.463C195.33 232.41 196.68 232.095 197.671 231.296C198.952 234.208 204.223 233.954 203.978 230.226Z" fill="#B4CCB4" />
	<path d="M206.223 243.997C206.206 243.409 205.311 243.058 204.951 243.576C204.539 244.172 204.171 244.97 203.329 244.988C202.197 245.014 201.802 243.804 202.162 242.936C202.188 242.857 202.223 242.786 202.241 242.708C202.416 241.804 201.11 241.339 200.697 242.181C200.592 242.392 200.522 242.611 200.469 242.83C200.013 243.611 198.768 243.804 198.215 242.936C197.671 242.094 198.075 240.98 198.698 240.339C199.083 239.936 198.487 239.234 198.048 239.594C196.592 240.787 196.163 243.216 197.812 244.479C198.654 245.12 199.697 245.137 200.566 244.751C200.846 245.541 201.434 246.216 202.302 246.523C204.022 247.163 206.276 245.918 206.223 243.997Z" fill="#B4CCB4" />
	<path d="M204.829 261.6C204.881 261.548 204.934 261.504 204.969 261.443C215.661 243.506 215.345 220.227 206.486 201.677C206.171 201.01 205.381 200.799 204.837 201.361C197.829 208.579 191.663 218.201 188.725 228.384C188.532 228.305 188.339 228.218 188.137 228.165C187.681 227.998 187.041 228.077 186.839 228.604C185.357 232.366 183.857 236.12 182.392 239.892C182.217 240.348 182.322 240.927 182.813 241.146C184.208 241.76 185.559 242.479 186.979 243.015C187.33 248.654 188.962 254.198 192.295 259.364C192.602 259.846 193.391 259.451 193.189 258.916C188.076 245.12 188.725 231.875 194.198 219.912C198.171 222.885 205.907 226.946 210.267 222.859C211.538 235.577 208.925 248.382 203.118 260.53C203.083 260.592 203.092 260.653 203.066 260.715C202.609 261.004 202.329 261.6 202.706 262.197C205.995 267.372 207.258 273.178 206.478 279.169C201.908 275.704 199.706 271.117 197.838 265.775C197.864 265.714 197.908 265.67 197.935 265.609C198.566 264.39 196.689 263.477 196.04 264.67C193.365 269.538 189.313 273.02 184.181 274.818C185.892 269.03 189.277 265.17 193.093 260.364C193.444 259.916 192.935 259.425 192.47 259.662C186.506 262.67 182.997 269.986 181.62 276.204C181.436 277.046 182.269 277.599 183.006 277.406C188.672 275.959 193.496 272.564 196.671 267.758C197.557 273.626 201.987 278.888 206.793 282.002C207.381 282.388 208.188 281.87 208.302 281.256C209.653 274.362 208.416 267.565 204.829 261.6ZM184.41 239.874C185.681 236.743 186.927 233.603 188.181 230.463C187.304 234.086 186.857 237.761 186.927 241.409C186.12 240.857 185.269 240.357 184.41 239.874ZM194.628 218.999C197.215 213.614 200.785 208.5 205.267 203.729C207.749 209.404 209.319 215.184 210.074 220.982C204.916 224.464 199.478 221.789 194.628 218.999Z" fill="#B4CCB4" />
	<path d="M202.645 212.5C200.654 212.307 199.478 214.816 200.969 216.193C201.39 216.579 201.89 216.017 201.662 215.579C201.364 215 201.934 213.974 202.566 213.851C203.241 213.71 203.495 212.579 202.645 212.5Z" fill="#B4CCB4" />
	<path d="M334.895 338.189C333.176 335.637 330.018 332.997 326.87 333.102C326.799 332.874 326.65 332.672 326.396 332.593C324.94 332.102 326.519 330.216 326.922 329.576C327.326 328.927 327.624 328.243 327.633 327.471C327.641 326.243 326.826 325.094 325.519 325.147C321.888 325.278 321.87 331.216 322.668 333.567C322.677 333.602 322.703 333.637 322.721 333.663C320.063 333.041 317.16 334.146 315.625 336.418C311.889 334.479 306.179 342.522 305.328 345.276C302.609 354.126 312.187 358.398 319.177 359.836C326.659 361.38 336.421 360.687 340.114 352.776C342.07 348.601 341.202 338.075 334.895 338.189ZM316.643 337.689C316.757 337.488 316.897 337.295 317.055 337.119C318.467 335.374 320.677 334.488 322.896 334.549C323.256 334.558 323.388 334.172 323.256 333.909C323.493 333.883 323.694 333.725 323.668 333.427C323.51 331.865 323.58 330.269 324.098 328.778C324.23 328.383 324.414 327.717 324.738 327.427C324.87 327.059 325.133 327.024 325.501 327.322C326.098 327.269 326.264 327.506 326.001 328.015C325.87 328.717 325.115 329.41 324.782 330.015C324.01 331.401 324.124 333.471 325.747 333.97C325.747 334.19 325.852 334.4 326.133 334.523C327.527 335.119 328.983 335.383 330.29 336.207C330.808 336.532 331.273 336.918 331.702 337.33C330.624 337.093 329.51 337.014 328.369 337.111C328.098 337.014 327.755 337.146 327.615 337.382C327.22 338.075 327.37 338.874 327.396 339.645C327.413 340.04 327.457 340.426 327.492 340.821C326.536 340.189 325.756 339.347 325.107 338.356C324.949 338.119 324.729 338.067 324.528 338.119C323.756 338.224 323.063 338.865 322.484 339.61C322.458 338.952 322.396 338.295 322.291 337.654C322.3 337.646 322.317 337.646 322.335 337.646C322.879 337.444 322.861 336.461 322.186 336.549C321.028 336.69 319.888 336.996 318.748 337.251C318.055 337.409 317.335 337.637 316.625 337.724C316.634 337.707 316.634 337.698 316.643 337.689ZM338.921 349.03C338.456 351.749 337.079 353.881 334.992 355.644C330.501 359.424 323.887 358.793 318.598 357.582C316.976 357.214 315.432 356.766 313.888 356.126C309.845 354.451 306.696 350.627 307.249 345.803C307.494 343.698 312.152 337.944 315.16 337.172C314.792 337.988 314.792 339.084 315.879 339.259C316.686 339.391 317.765 338.83 318.546 338.637C319.528 338.391 320.528 338.163 321.502 337.882C321.3 339.189 321.318 340.549 321.168 341.864C321.081 342.601 322.177 342.803 322.51 342.224C322.905 341.549 323.352 340.908 323.887 340.329C324.115 340.084 324.379 339.865 324.598 339.628C325.431 341.04 326.642 342.206 328.045 343.057C328.606 343.399 329.369 342.961 329.361 342.303C329.343 341.356 329.264 340.4 329.159 339.461C329.115 339.058 329.097 338.663 329.027 338.295C330.808 338.602 332.466 339.18 334.018 340.18C334.386 340.417 334.781 340.329 335.062 340.093C337.877 341.329 339.351 346.504 338.921 349.03Z" fill="#B4CCB4" />
	<path d="M220.319 276.915C225.573 278.748 229.835 272.231 226.248 268.196C228.283 267.573 230.309 266.477 232.212 265.363C232.537 266.31 233.247 267.126 234.405 267.521C235.624 267.942 237.063 267.714 238.08 266.916C239.545 265.784 239.51 263.776 240.667 262.434C240.676 262.425 240.676 262.407 240.685 262.399C240.79 262.363 240.896 262.337 241.001 262.267C245.869 259.074 255.841 262.311 261.332 262.127C265.621 261.986 269.814 261.153 273.498 258.838C280.725 254.285 282.365 246.198 278.164 238.927C273.883 231.516 265.148 227.727 256.806 229.726C252.403 230.779 248.763 233.428 245.711 236.691C241.72 240.962 238.904 248.549 234.037 251.935C231.66 252.172 228.625 251.233 227.625 254.031C226.95 255.899 228.186 257.162 229.774 257.785C228.862 258.215 227.958 258.662 227.081 259.171C226.476 259.522 225.792 259.873 225.178 260.302C224.669 258.618 223.827 257.013 222.055 256.373C220.257 255.724 218.091 256.373 216.854 257.803C214.117 260.969 216.038 264.626 219.029 266.407C215.424 269.135 215.267 275.152 220.319 276.915ZM231.037 259.776C231.23 259.197 231.967 258.732 232.44 258.373C232.51 258.32 232.563 258.25 232.598 258.18C232.66 258.171 232.721 258.171 232.774 258.162C233.756 258.004 233.659 256.662 232.738 256.487C231.826 256.311 230.054 256.513 229.555 255.522C228.555 253.54 231.774 253.654 232.721 253.601C232.94 253.584 233.151 253.557 233.361 253.531C233.466 253.575 233.58 253.601 233.73 253.575C239.176 252.496 242.167 244.97 245.351 241.024C248.912 236.603 253.228 232.682 259.052 231.867C266.025 230.902 273.191 234.55 276.427 240.848C283.4 254.426 267.717 260.153 257.166 259.601C251.588 259.311 244.544 256.943 239.632 260.513C239.317 260.741 239.194 261.03 239.194 261.32C238.255 262.144 238.062 263.206 237.545 264.328C236.598 266.407 234.414 265.653 234.019 264.302C234.063 264.276 234.115 264.249 234.159 264.223C234.624 263.96 234.501 263.328 234.124 263.179C234.23 262.969 234.361 262.758 234.572 262.556C235.37 261.767 234.677 260.416 233.545 260.829C232.712 261.136 230.432 261.574 231.037 259.776ZM221.783 267.24C222.582 266.995 222.582 265.574 221.748 265.372C219.696 264.872 217.424 263.548 217.766 260.925C218.643 257.899 220.389 257.408 223.003 259.451C223.38 260.083 223.722 260.723 224.055 261.381C224.02 261.425 223.985 261.469 223.959 261.521C223.616 262.074 224.117 262.653 224.713 262.469C225.888 262.109 226.836 261.092 227.853 260.416C228.327 260.101 228.818 259.811 229.309 259.522C229.028 260.039 228.906 260.627 229.072 261.276C229.458 262.828 230.765 263.223 232.124 263.153C232.063 263.425 232.037 263.705 232.028 263.977C231.054 264.416 230.081 264.863 229.107 265.284C227.695 265.898 226.169 266.354 224.871 267.179C224.625 267.328 224.564 267.591 224.616 267.837C224.274 268.117 224.125 268.6 224.52 269.065C227.318 272.389 223.669 277.108 219.924 274.476C216.819 272.319 218.731 268.187 221.783 267.24Z" fill="#B4CCB4" />
	<path d="M294.673 400.162C295.006 397.654 293.927 396.224 293.726 393.9C293.375 389.698 296.506 388.391 297.182 384.857C298.822 376.287 285.832 370.49 279.938 376.077C279.832 376.182 279.762 376.287 279.718 376.401C273.166 378.796 268.886 387.085 269.895 393.759C271.114 401.829 280.025 410.091 288.612 407.705C292.086 406.758 294.217 403.644 294.673 400.162ZM282.437 405.513C276.096 403.618 271.342 397.206 271.728 390.567C272.158 383.102 278.026 379.243 284.043 376.261C284.2 376.182 284.218 376.007 284.148 375.875C290.349 374.27 296.98 380.489 293.831 387.418C292.998 389.251 291.665 390.198 291.568 392.356C291.48 394.443 292.814 396.399 292.849 398.513C292.945 404.197 287.419 406.995 282.437 405.513Z" fill="#B4CCB4" />
	<path d="M336.035 398.175C335.877 396.938 335.079 395.438 333.877 394.886C338.596 385.614 333.193 372.519 321.387 373.712C312.064 374.659 304.836 388.667 311.774 395.903C310.757 396.447 309.897 397.184 309.704 398.429C309.503 399.692 310.029 400.999 311.029 401.788C311.809 402.402 312.809 402.534 313.748 402.323C314.3 408.235 315.379 414.068 316.563 419.883C317.668 425.277 318.309 431.987 320.791 436.916C320.914 437.153 321.256 437.373 321.528 437.337C325.378 436.873 325.694 430.321 326.545 427.382C328.869 419.366 330.562 411.235 331.86 402.99C332.684 403.016 333.518 402.753 334.237 402.236C335.526 401.332 336.237 399.736 336.035 398.175ZM327.124 418.699C326.439 421.479 324.703 432.662 322.256 432.943C319.817 433.224 316.011 408.621 314.783 401.937C315.028 401.797 315.274 401.648 315.476 401.455C316.055 402.595 317.204 403.516 318.423 403.806C320.221 404.235 322.589 403.385 323.878 401.859C324.448 402.753 325.562 403.315 326.685 403.174C327.492 403.078 328.501 402.455 329.202 401.639C329.395 401.911 329.65 402.165 329.957 402.376C330.106 402.481 330.264 402.569 330.421 402.648C329.518 408.042 328.422 413.392 327.124 418.699ZM333.947 399.99C333.544 400.613 332.746 401.209 331.992 401.262C331.15 401.323 329.886 400.709 330.088 399.683C330.123 399.49 330.053 399.315 329.939 399.175C329.913 399.096 329.887 399.017 329.851 398.938C329.72 398.675 329.334 398.578 329.088 398.736C328.194 399.297 328.124 400.587 327.22 401.227C326.308 401.876 324.694 401.473 324.738 400.192C324.747 400.157 324.764 400.131 324.773 400.104C324.896 399.446 324.212 399.096 323.712 399.49C322.361 400.552 321.501 402.06 319.58 402.166C317.932 402.262 316.791 401.087 316.405 399.639C316.432 399.35 316.414 399.052 316.335 398.736C316.3 398.613 316.23 398.526 316.16 398.464C316.151 398.455 316.151 398.447 316.142 398.438C316.134 398.429 316.116 398.42 316.107 398.411C315.958 398.28 315.739 398.262 315.581 398.403C315.432 398.464 315.291 398.569 315.239 398.736C315.037 399.324 314.581 399.955 314.028 400.341C313.888 400.359 313.765 400.429 313.686 400.534C313.116 400.797 312.493 400.78 311.932 400.166C310.783 398.885 311.59 397.622 312.651 396.719C312.66 396.727 312.66 396.727 312.669 396.736C313.002 397.008 313.52 396.666 313.292 396.263C313.274 396.236 313.265 396.201 313.248 396.175C313.379 395.894 313.204 395.57 312.914 395.508C309.318 388.272 311.309 377.431 320.493 375.528C331.685 373.203 336.693 386.22 332.062 394.64C331.72 395.263 332.184 395.833 332.711 395.938C333.263 396.464 333.833 396.806 334.158 397.543C334.5 398.35 334.439 399.245 333.947 399.99Z" fill="#B4CCB4" />
	<path d="M319.484 52.5948C313.976 47.3672 305.994 49.8407 299.837 52.2878C299.714 51.0686 299.749 49.9371 299.933 48.832C300.39 48.7092 300.749 48.2969 300.574 47.7356C300.512 47.5251 300.425 47.3146 300.346 47.1129C300.714 45.9024 301.24 44.7008 301.924 43.4465C302.302 42.7624 301.354 41.9467 300.802 42.5782C300.153 43.3238 299.627 44.1658 299.214 45.078C296.671 41.6923 291.82 40.1574 287.742 40.8942C287.084 41.0082 286.803 41.8765 287.128 42.4028C289.522 46.3147 293.627 48.8583 298.197 49.0688C298.083 50.5336 298.214 52.0159 298.6 53.3929C298.592 53.4368 298.574 53.4894 298.574 53.5333C293.39 51.5598 287.847 50.3318 283.4 53.9104C278.681 57.7083 278.909 64.8655 279.699 70.2421C280.593 76.3205 282.918 84.1881 288.329 87.8807C292.671 90.8454 298.6 90.3805 301.407 85.7669C303.284 89.5122 307.801 89.3104 311.143 86.837C316.528 82.8549 320.16 75.0224 321.905 68.7335C323.387 63.4358 323.835 56.7347 319.484 52.5948ZM289.759 42.7185C293.434 42.6133 296.302 44.7096 298.381 47.7005C298.381 47.7093 298.381 47.7181 298.372 47.7268C294.864 47.2883 291.803 45.5604 289.759 42.7185ZM320.458 64.7339C319.914 68.5581 318.528 72.2244 316.756 75.6451C316.116 76.8818 315.423 78.101 314.66 79.2763C313.046 81.7585 306.231 91.7137 302.17 84.2144C301.916 83.7408 301.267 83.8548 301.03 84.232C300.644 84.1004 300.188 84.1706 299.872 84.5916C292.987 93.8714 285.277 82.1796 283.321 76.6976C281.891 72.6893 281.032 68.2073 281.234 63.9358C281.988 47.9198 297.232 55.9453 306.117 58.217C307.056 58.4538 307.406 57.1031 306.512 56.7786C304.714 56.1295 302.714 55.2261 300.618 54.3578C303.477 53.1912 306.319 52.086 309.424 51.8405C317.651 51.1826 321.493 57.4627 320.458 64.7339Z" fill="#B4CCB4" />
	<path d="M80.4023 -14.9161C76.3589 -16.951 70.7366 -19.4069 66.1581 -18.9771C65.816 -18.942 65.5178 -18.7052 65.3512 -18.3982C65.2284 -18.828 64.8249 -19.2139 64.2548 -19.1262C63.632 -19.0209 63.1321 -18.7578 62.7111 -18.407C62.1848 -18.8367 61.3955 -18.9946 60.7201 -19.0911C59.9921 -19.1964 59.0009 -19.3104 58.3168 -18.9157C58.4834 -19.4683 58.308 -20.1261 57.58 -20.3278C52.7998 -21.6435 47.3617 -22.2048 42.5201 -20.8278C42.0377 -21.0997 41.3623 -21.0734 41.0553 -20.512C39.4327 -17.5299 38.0732 -14.3986 36.7926 -11.2322C36.5295 -13.6618 36.6172 -16.0739 36.9242 -18.5648C36.9943 -18.5736 37.0645 -18.5912 37.1259 -18.6613C37.4943 -19.0472 38.0118 -19.2841 38.5556 -19.2753C39.0643 -19.2665 39.4853 -18.8543 39.9853 -19.0034C40.187 -19.0648 40.3887 -19.2753 40.3712 -19.5121C40.2747 -20.4243 39.1432 -20.5734 38.3889 -20.4682C37.889 -20.398 37.4504 -20.1875 37.0908 -19.8717C37.2838 -20.3454 37.1522 -20.9243 36.5119 -21.0646C32.6877 -21.9242 28.0128 -21.2926 24.2675 -20.2489C24.022 -20.1787 23.8903 -19.9945 23.8377 -19.7928C23.5658 -19.7752 23.3027 -19.6437 23.136 -19.3016C23.101 -19.2314 23.0659 -19.1525 23.022 -19.0736C21.9081 -19.5735 20.3995 -19.5735 19.3733 -19.3279C19.3557 -19.3718 19.347 -19.4244 19.3207 -19.4683C19.3733 -19.7314 19.2329 -20.0121 18.8821 -20.0471C12.3038 -20.7576 -2.57194 -13.7671 0.383905 -5.21528C0.5067 -4.85567 0.787409 -4.65393 1.07685 -4.60131C2.19078 -1.77703 5.3834 -0.0842113 8.64623 0.801666C17.4348 3.17863 27.1357 3.81891 36.1874 3.93294C45.6689 4.05573 55.1768 3.24002 64.5004 1.46827C71.6576 0.108753 78.9902 -1.68054 83.9809 -7.33788C84.3405 -7.74135 84.3581 -8.19744 84.209 -8.58337C85.2176 -11.548 83.0249 -13.6004 80.4023 -14.9161ZM58.2466 -17.8807C58.8694 -17.5649 59.7114 -17.6176 60.3868 -17.4421C60.7815 -17.3369 61.1762 -17.1439 61.5796 -17.0036C61.2726 -16.4773 61.0095 -15.916 60.7551 -15.3634C60.0096 -13.7671 59.3342 -12.1444 58.6588 -10.513C58.2028 -12.9514 58.08 -15.3897 58.2466 -17.8807ZM21.2064 -18.2666C21.6362 -18.1965 22.0221 -18.021 22.408 -17.8456C21.0397 -15.0915 19.7154 -12.3286 18.3909 -9.54819C18.2594 -12.4426 18.6014 -15.2932 19.2242 -18.1789C19.3382 -18.2228 19.4522 -18.2579 19.575 -18.2666C20.0925 -18.3806 20.6889 -18.3456 21.2064 -18.2666ZM82.2969 -9.04824C72.8329 0.0912113 55.9135 0.784124 43.5288 1.29285C37.0119 1.56475 30.4862 1.37179 23.9869 0.749041C17.8296 0.161379 5.43602 0.0561256 2.28721 -6.60111C3.48885 -13.618 11.8038 -16.3984 17.9787 -18.7227C16.5402 -14.6442 16.2507 -10.3376 16.8209 -6.04853C16.9349 -5.20651 18.1541 -4.58377 18.6365 -5.55735C20.7152 -9.81132 22.8554 -14.039 24.8464 -18.328C24.9604 -18.5648 24.9604 -18.7929 24.9078 -19.0034C28.3812 -19.1437 31.9422 -18.9859 35.398 -19.2051C34.1437 -15.2055 34.2578 -10.8989 35.284 -6.8467C35.5822 -5.66261 37.1083 -5.86434 37.4943 -6.8467C39.1608 -11.1445 41.1167 -15.302 42.8973 -19.5472C47.5898 -19.4156 52.0192 -19.3279 56.6327 -18.214C56.0188 -14.381 56.238 -10.513 57.352 -6.75899C57.6853 -5.65384 59.0536 -5.81172 59.4395 -6.75899C60.1587 -8.50443 60.8867 -10.2411 61.5884 -11.9865C62.1848 -13.4776 62.8339 -17.0825 64.746 -17.4071C64.9916 -17.4509 65.1494 -17.5737 65.2547 -17.714C65.3161 -17.5211 65.4477 -17.3544 65.702 -17.2404C68.2983 -16.0826 71.2365 -15.7756 73.938 -14.881C76.4992 -14.0302 82.1829 -12.6005 82.5863 -9.2412C82.4811 -9.17103 82.3846 -9.13595 82.2969 -9.04824Z" fill="#B4CCB4" />
	<path d="M74.5168 114.975C75.929 111.177 67.7456 106.019 64.8775 105.318C64.7108 105.274 64.5529 105.291 64.4126 105.335C64.395 105.274 64.3775 105.204 64.3599 105.142C62.6934 100.625 54.5451 101.064 50.9227 102.151C49.2211 102.66 47.4055 103.265 47.0459 105.212C47.0108 105.414 47.002 105.625 46.9845 105.835C42.7305 105.335 36.5908 108.449 38.4064 113.141C34.5647 116.983 33.7577 123.395 37.0644 127.894C38.1608 129.385 40.1693 130.92 41.9762 129.526C42.8796 128.833 43.2305 127.473 43.6427 126.473C44.3356 124.798 44.8882 123.333 46.0109 122.053C47.9318 122.807 49.4667 121.588 51.7296 121.509C53.1418 123.14 55.01 123.904 57.4221 122.325C57.4922 122.281 57.5361 122.228 57.5799 122.167C57.922 122.43 58.3869 122.509 58.7377 122.237C59.3341 123.439 60.7901 124.018 62.3338 123.675C63.0881 123.509 63.7986 123.149 64.4827 122.719C67.6579 124.93 63.8337 131.648 65.9124 134.508C67.3333 136.464 69.8506 134.762 71.1663 133.674C76.236 129.464 78.8936 120.571 74.5168 114.975ZM42.8007 122.755C41.9762 124.421 41.3798 129.157 38.6695 126.473C35.6698 123.5 36.8539 117.509 38.9765 114.29C40.2658 116.588 42.1428 119 44.1251 120.755C43.6076 121.334 43.1866 121.974 42.8007 122.755ZM49.1597 120.228C48.4054 120.299 47.7564 120.228 47.1775 120.071C46.967 119.483 46.3091 119.044 45.7039 119.36C44.7917 118.711 44.0462 117.773 43.2305 116.764C42.5814 115.974 41.9762 115.141 41.4149 114.29C40.5904 113.054 40.4325 110.668 41.4499 109.396C42.52 108.054 45.2829 107.914 46.9757 107.502C47.195 109.993 48.1773 112.826 48.6861 114.878C49.0632 116.387 49.7298 118.404 50.7034 120.071C50.2298 120.088 49.7473 120.176 49.1597 120.228ZM57.2378 120.851C57.1501 121.027 57.1326 121.193 57.1414 121.351C57.0975 121.351 57.0624 121.351 57.0186 121.36C51.7735 122.763 50.8525 114.913 50.1421 111.659C49.6334 109.361 48.3002 106.125 50.9052 104.327C52.0893 103.511 54.589 103.476 55.8871 103.476C57.2642 103.476 59.6236 103.52 60.8779 104.344C63.9302 106.344 62.5093 109.563 61.4831 111.984C60.2113 115.001 58.65 117.904 57.2378 120.851ZM59.4394 121.053C61.4304 117.281 64.9213 111.87 64.7634 107.344C66.0001 107.975 67.2456 108.554 68.3771 109.379C69.3419 110.08 70.2454 110.931 71.026 111.826C71.9733 112.913 72.6925 113.431 71.9996 114.641C71.0347 116.317 68.1841 117.623 66.6317 118.729C65.5879 119.483 60.8691 123.728 59.4394 121.053ZM70.7716 131.069C70.1138 131.762 69.3858 132.368 68.5964 132.894C67.4912 133.131 67.1667 132.639 67.614 131.42C66.9211 129.096 68.649 123.193 65.5528 121.983C66.0878 121.588 66.6141 121.184 67.1141 120.834C69.0876 119.457 71.3417 118.141 73.21 116.58C74.0169 119.886 74.894 122.755 73.7011 126.263C73.0872 128.052 72.0785 129.71 70.7716 131.069Z" fill="#B4CCB4" />
	<path d="M157.088 16.5983C152.659 12.2304 146.633 11.0989 140.87 13.1689C138.484 14.0284 136.344 15.6072 133.818 16.0984C129.968 16.8439 127.029 15.3265 123.784 13.7302C120.653 12.1953 117.855 10.9585 114.329 10.8796C113.671 10.8621 113.338 11.3445 113.32 11.8532C101.278 13.8355 99.1463 30.518 105.181 39.8417C113.522 52.7176 131.582 56.9452 145.396 51.2353C158.088 45.9902 169.043 28.3691 157.088 16.5983ZM150.904 45.306C140.133 53.4982 124.319 53.2351 113.548 45.1657C102.313 36.7455 99.2515 16.958 115.39 13.0899C120.197 13.6688 123.889 16.9053 128.556 18.0368C132.09 18.8964 135.029 17.9579 138.318 16.6334C146.554 13.318 155.913 14.0723 159.053 24.0362C161.596 32.1582 157.316 40.4381 150.904 45.306Z" fill="#B4CCB4" />
	<path d="M150.238 30.7548C149.659 24.9221 143.633 20.0015 137.765 21.975C137.45 22.0803 137.257 22.3171 137.169 22.5802C132.476 22.7381 128.986 27.0534 129.24 31.9389C129.547 37.912 135.23 42.6923 141.177 41.9555C146.633 41.2713 150.782 36.2455 150.238 30.7548ZM141.8 39.5084C137.686 40.5521 133.064 37.798 131.775 33.7984C130.248 29.062 133.099 24.694 137.607 23.7818C137.721 23.8345 137.853 23.8608 138.011 23.8608C142.651 23.738 146.966 25.2115 147.922 30.3865C148.712 34.5703 145.87 38.4734 141.8 39.5084Z" fill="#B4CCB4" />
	<path d="M234.036 4.00312C232.992 1.69633 231.317 1.05605 229.931 -0.81219C227.414 -4.18905 229.379 -6.96071 228.081 -10.3113C224.941 -18.4508 210.854 -16.5124 208.802 -8.65352C208.767 -8.51318 208.758 -8.38162 208.784 -8.25882C204.486 -2.75937 205.232 6.52919 209.626 11.669C214.933 17.8789 226.861 20.177 232.887 13.6162C235.317 10.9673 235.483 7.20456 234.036 4.00312ZM226.467 15.0108C220.081 16.7562 212.661 13.8267 209.477 7.98519C205.899 1.41566 208.837 -4.9609 212.372 -10.6621C212.468 -10.8112 212.38 -10.9691 212.258 -11.0392C216.669 -15.6791 225.59 -13.9074 226.581 -6.3555C226.844 -4.36447 226.204 -2.84708 227.274 -0.970069C228.3 0.854311 230.466 1.81036 231.615 3.58211C234.694 8.3448 231.475 13.6425 226.467 15.0108Z" fill="#B4CCB4" />
	<path d="M269.665 -8.01322C269.577 -11.5041 267.051 -14.7055 264.226 -16.4685C264.042 -16.5825 263.858 -16.4247 263.849 -16.2492C258.578 -18.749 251.622 -16.9772 251.28 -9.87269C251.026 -4.70653 253.973 -5.9871 248.842 1.18762C247.623 2.89798 246.377 3.8628 245.746 5.99417C244.711 9.51136 245.728 13.3531 248.324 15.8967C254.289 21.7295 264.7 18.3438 269.279 12.283C273.682 6.45026 272.743 -1.47878 269.665 -8.01322ZM254.64 16.6422C251.114 16.8615 248.693 15.0898 247.36 11.3357C246.316 7.1344 247.711 3.79263 251.535 1.31919C252.079 0.705215 253.008 0.284204 253.315 -0.505192C254.35 -3.20668 253.561 -1.50509 253.973 -4.24166C253.885 -4.94335 253.754 -5.63626 253.578 -6.32918C253.157 -15.53 256.982 -17.9245 265.042 -13.5127C265.06 -13.4951 265.077 -13.4951 265.104 -13.4864C268.296 -8.61842 270.366 -3.03126 270.103 2.88044C269.735 10.9323 262.788 17.7825 254.64 16.6422Z" fill="#B4CCB4" />
	<path d="M107.505 164.671C107.154 164.373 106.76 164.364 106.426 164.514C106.023 162.496 102.295 161.523 100.629 161.251C100.883 160.365 101.137 159.488 101.462 158.628C101.725 157.927 102.523 156.9 102.488 156.146C102.436 155.067 101.041 154.664 100.181 154.76C96.8747 155.129 96.9799 160.093 97.7606 162.549C97.743 162.531 97.7343 162.514 97.7167 162.505C96.0853 161.312 94.0241 161.391 92.5505 162.663C92.4891 162.619 92.4278 162.584 92.34 162.584C85.9459 162.601 78.359 165.987 77.3328 173.065C76.3767 179.67 81.8761 184.608 87.5422 186.582C94.8398 189.125 103.199 188.52 108.198 182.064C112.347 176.723 112.847 169.311 107.505 164.671ZM97.2518 163.303C97.5939 163.487 97.8833 163.251 97.9184 162.961C98.0325 163.154 98.3657 163.137 98.3482 162.873C98.2868 161.374 98.3657 159.751 98.6815 158.286C98.9096 157.225 100.059 155.295 101.216 156.26C100.366 157.988 99.6113 159.804 99.1902 161.689C99.1288 161.952 99.2253 162.163 99.3832 162.295C99.4621 162.601 99.7165 162.873 100.181 162.926C100.971 163.023 103.365 163.4 103.935 164.11C104.97 165.408 102.33 164.391 101.83 164.207C101.479 164.075 100.953 164.356 100.892 164.733C100.813 165.25 100.76 165.768 100.716 166.277C100.138 165.733 99.5586 165.18 98.9885 164.636C98.6552 164.321 98.05 164.356 97.822 164.785C97.629 165.136 97.4273 165.47 97.2168 165.785C97.2869 165.119 97.2518 164.505 96.9711 164.093C96.515 163.444 95.4012 163.251 94.3749 163.145C95.2433 162.733 96.2344 162.751 97.2518 163.303ZM106.505 180.907C102.444 186.257 95.1643 187.011 89.086 185.055C82.6831 182.985 77.1135 177.539 80.2886 170.285C82.1481 166.049 87.858 164.715 91.8927 163.514C91.805 163.882 91.9366 164.303 92.3751 164.382C92.9189 164.479 95.2257 164.54 95.559 164.935C96.0239 165.487 95.2871 167.671 95.1819 168.311C95.0591 169.022 95.8484 169.557 96.4186 169.031C97.3044 168.206 98.0149 167.338 98.6464 166.347L100.909 168.504C101.374 168.952 102.199 168.636 102.199 167.969C102.19 167.268 102.234 166.61 102.304 165.934C103.462 166.277 105.181 166.592 106.005 165.952C106.04 165.996 106.058 166.04 106.111 166.084C110.786 170.145 109.917 176.416 106.505 180.907Z" fill="#B4CCB4" />
	<path d="M89.2691 15.6061C89.2619 15.4407 89.2547 15.2825 89.2475 15.1171C89.2259 14.7072 88.8736 14.4052 88.5428 14.2469C86.3927 13.1971 84.7315 13.8083 82.416 14.2901C78.5976 15.0811 74.7792 15.8434 70.9535 16.584C63.6475 17.9935 56.327 19.3022 48.985 20.5175C33.9557 23.0056 18.8186 24.7243 3.7822 27.1476C3.04153 27.2699 3.03431 28.0969 3.48735 28.4564C3.29319 28.5283 3.14218 28.6865 3.12779 28.9382C2.68914 40.2353 9.4703 50.4537 18.5669 56.7027C28.8789 63.7931 41.9234 65.2744 54.0762 63.5486C65.5675 61.9162 78.5257 58.0978 85.1702 47.8362C91.1316 38.6317 91.6924 26.9535 90.283 16.3899C90.2039 15.8002 89.7293 15.5629 89.2691 15.6061ZM83.2286 16.6703C83.2142 16.7926 83.2214 16.922 83.2646 17.0586C86.1338 26.2128 84.5014 36.2227 79.101 44.14C73.3266 52.6039 64.1508 56.5949 54.1409 57.6016C44.0231 58.6227 32.7548 58.0187 24.1328 52.1005C15.9422 46.4699 11.2968 37.8263 9.84423 28.1688C21.6663 27.1476 33.4523 25.3283 45.1521 23.4515C48.0573 22.9912 73.305 18.0798 83.2286 16.6703ZM83.7751 45.9306C77.6915 55.8974 65.5315 59.5432 54.6083 61.2834C31.8056 64.9221 6.80961 54.2218 4.35028 28.9023C4.33589 28.7728 4.27836 28.6721 4.20645 28.593C5.68061 28.4996 7.15478 28.3845 8.62894 28.2623C9.12512 38.3297 14.9427 47.7499 23.162 53.438C32.6326 59.989 45.2456 60.5356 56.3414 59.0542C76.9293 56.3072 91.2107 36.9059 84.8682 16.4474C86.3208 16.2748 87.1981 16.2245 87.2268 16.3683C87.3778 17.0371 87.91 17.2888 88.399 17.2025C89.5927 26.8816 88.9743 37.4164 83.7751 45.9306Z" fill="#B4CCB4" />
	<path d="M29.5692 32.9867C28.7998 32.1094 27.5054 33.1953 28.1814 34.1301C28.5912 34.6982 28.8717 35.3238 28.9364 36.0285C29.0083 36.7692 28.8501 37.3661 29.3248 38.0061C29.6124 38.3872 30.3099 38.4879 30.6623 38.1355C32.0214 36.7764 30.6047 34.1733 29.5692 32.9867Z" fill="#B4CCB4" />
	<path d="M59.2253 31.2178C58.8946 30.4052 58.9665 29.5135 58.7004 28.6793C58.6501 28.5211 58.5926 28.3414 58.5782 28.2407C58.571 28.2047 58.5638 28.1688 58.5638 28.1328C58.5062 27.7661 57.6289 27.802 57.6146 28.1903C57.6074 28.4061 57.1759 28.6865 57.1184 28.9238C57.0608 29.1755 57.0177 29.5351 57.0321 29.7939C57.0608 30.3405 57.1112 30.887 57.2191 31.4191C57.4204 32.3827 57.557 33.6268 58.4415 34.1805C59.06 34.5688 59.8438 34.2596 59.9588 33.5045C60.0883 32.6416 59.5417 32.0016 59.2253 31.2178Z" fill="#B4CCB4" />
	<path d="M74.4988 25.0982C74.0386 24.5517 72.9887 25.127 73.3842 25.7885C73.8588 26.5867 74.2256 27.6079 74.4485 28.5068C74.6642 29.3912 74.542 30.3333 74.9159 31.1602C75.2539 31.9009 76.426 31.9081 76.6992 31.1099C77.4112 29.0605 75.7428 26.5796 74.4988 25.0982Z" fill="#B4CCB4" />
	<path d="M70.5367 38.2937C70.2059 37.1863 68.4369 37.3877 68.7029 38.5886C69.0912 40.3504 69.2351 42.5724 70.2562 44.0897C70.6877 44.7297 71.7519 44.3414 71.8167 43.6295C71.9605 41.8893 71.0257 39.9333 70.5367 38.2937Z" fill="#B4CCB4" />
	<path d="M45.591 42.5724C44.9222 41.8533 43.8723 42.7306 44.4189 43.536C45.0948 44.5211 45.6054 45.607 45.9002 46.7719C46.1519 47.7643 46.0656 48.807 46.4611 49.749C46.7775 50.5041 48.0072 50.4969 48.266 49.6987C49.0427 47.3112 47.1515 44.2551 45.591 42.5724Z" fill="#B4CCB4" />
	<path d="M180.357 -25.5203C180.428 -26.0904 180.515 -26.6605 180.638 -27.2219C181.331 -30.5812 183.015 -33.3879 184.34 -36.5016C184.734 -37.4314 183.629 -38.5628 182.813 -37.677C181.226 -35.9666 180.068 -33.8528 179.287 -31.5548C175.998 -37.9752 168.587 -43.0975 161.535 -40.1416C160.851 -39.8522 160.421 -39.1505 160.842 -38.4313C164.464 -32.1249 170.639 -27.6604 177.954 -26.9324C178.068 -26.9236 178.156 -26.9499 178.235 -26.985C178.138 -26.257 178.086 -25.5203 178.042 -24.7923C165.587 -29.0375 152.536 -21.4154 150.536 -8.2325C148.659 4.11715 158.474 15.1687 170.578 16.4756C182.533 17.7649 194.146 8.87984 197.04 -2.60148C199.82 -13.7144 192.9 -26.7219 180.357 -25.5203ZM178.094 -28.1428C177.665 -28.2568 177.261 -28.3884 176.84 -28.52C175.84 -29.8532 174.349 -30.8969 173.095 -31.9758C171.569 -33.2914 170.051 -34.5983 168.508 -35.8877C168.052 -36.2648 167.403 -35.6508 167.85 -35.2298C169.288 -33.8352 170.744 -32.4669 172.209 -31.0899C172.665 -30.6601 173.121 -30.1952 173.586 -29.7304C169.49 -31.5811 166.061 -34.4229 163.605 -38.3523C166.973 -39.1154 170.306 -38.0629 172.99 -35.7122C175.437 -33.5809 176.656 -30.7566 178.384 -28.1691C178.375 -28.1077 178.358 -28.0463 178.349 -27.9849C178.296 -28.0463 178.208 -28.1077 178.094 -28.1428ZM193.207 0.187721C189.278 9.1342 179.331 15.4318 169.437 13.6776C160.114 12.0199 152.474 3.74 152.913 -5.94325C153.5 -18.8016 165.911 -26.0641 177.744 -23.3889C177.84 -23.3714 177.919 -23.3714 177.998 -23.3801C177.989 -21.1698 178.209 -18.9858 178.682 -17.0211C178.919 -16.03 180.647 -16.2142 180.507 -17.2667C180.252 -19.1437 180.121 -21.0207 180.164 -22.8977C192.988 -23.9152 197.689 -10.0306 193.207 0.187721Z" fill="#B4CCB4" />
	<path d="M198.198 97.8973C192.689 92.6698 184.708 95.1432 178.55 97.5903C178.428 96.3712 178.463 95.2397 178.647 94.1345C179.103 94.0117 179.463 93.5995 179.287 93.0382C179.226 92.8277 179.138 92.6172 179.059 92.4154C179.428 91.205 179.954 90.0034 180.638 88.7491C181.015 88.065 180.068 87.2493 179.515 87.8808C178.866 88.6263 178.34 89.4683 177.928 90.3805C175.384 86.9949 170.534 85.46 166.455 86.1967C165.797 86.3108 165.517 87.1791 165.841 87.7054C168.236 91.6172 172.34 94.1609 176.91 94.3714C176.796 95.8361 176.928 97.3184 177.314 98.6955C177.305 98.7393 177.287 98.792 177.287 98.8358C172.104 96.8623 166.56 95.6344 162.113 99.213C157.395 103.011 157.623 110.168 158.412 115.545C159.307 121.623 161.631 129.491 167.043 133.183C171.384 136.148 177.314 135.683 180.12 131.069C181.997 134.815 186.514 134.613 189.856 132.14C195.25 128.157 198.873 120.325 200.618 114.036C202.101 108.738 202.557 102.037 198.198 97.8973ZM168.481 88.0211C172.156 87.9159 175.024 90.0121 177.103 93.0031C177.103 93.0118 177.103 93.0206 177.094 93.0294C173.577 92.5908 170.516 90.8717 168.481 88.0211ZM199.171 110.036C198.627 113.861 197.242 117.527 195.47 120.948C194.829 122.184 194.137 123.404 193.373 124.579C191.76 127.061 184.944 137.016 180.883 129.517C180.629 129.043 179.98 129.157 179.743 129.535C179.357 129.403 178.901 129.473 178.585 129.894C171.7 139.174 163.99 127.482 162.034 122C160.605 117.992 159.745 113.51 159.947 109.238C160.701 93.2223 175.945 101.248 184.83 103.52C185.769 103.756 186.12 102.406 185.225 102.081C183.427 101.432 181.427 100.529 179.331 99.6603C182.19 98.4938 185.032 97.3886 188.137 97.143C196.364 96.4852 200.206 102.774 199.171 110.036Z" fill="#B4CCB4" />
	<path d="M266.779 49.2881C266.551 48.2794 266.322 47.2795 266.077 46.2796C265.831 45.2534 265.761 44.3763 264.849 43.736C264.296 43.3413 263.639 43.6658 263.323 44.1658C249.789 45.5692 236.939 42.5344 225.318 35.4737C219.073 31.6846 211.153 22.1504 203.224 26.1237C201.662 25.0361 200.575 23.5626 200.092 21.7031C199.75 20.405 199.768 19.0367 198.899 17.9315C197.619 16.3001 195.18 16.1072 193.417 17.0281C188.427 19.6419 191.269 26.1237 194.54 29.1673C194.488 29.2638 194.452 29.3778 194.47 29.5181C195.698 43.7974 212.003 52.1299 224.204 55.7348C236.492 59.366 257.139 61.7781 266.27 50.3932C266.638 50.2266 266.901 49.8494 266.779 49.2881ZM225.879 53.7964C213.652 50.3845 199.969 43.1045 196.207 30.1409C196.917 30.0356 197.505 29.1585 197.049 28.4656C195.944 26.7728 194.216 25.4747 193.575 23.4924C193.005 21.7382 194.058 17.4667 196.645 19.2121C197.584 19.8436 197.557 21.2909 197.882 22.2995C198.127 23.0451 198.496 23.7643 198.926 24.4221C199.689 25.5624 200.654 26.4833 201.776 27.2113C201.531 27.9306 202.276 28.7726 203.171 28.3691C210.46 25.1063 216.731 32.9388 222.204 36.4911C226.212 39.0961 230.466 41.2889 234.922 43.0168C244.009 46.5428 253.666 47.911 263.226 45.806C263.367 46.2358 263.577 46.6568 263.744 47.0866C263.989 47.7093 264.235 48.332 264.489 48.9548C255.797 58.9713 237.29 56.9803 225.879 53.7964Z" fill="#B4CCB4" />
	<path d="M247.175 49.9635C230.037 50.481 214.635 44.5605 202.96 31.8161C202.653 31.4828 202.197 31.9652 202.469 32.3073C213.196 45.2359 230.335 52.7176 247.175 50.8055C247.702 50.7441 247.728 49.9459 247.175 49.9635Z" fill="#B4CCB4" />
	<path d="M247.675 138.358C247.351 131.692 244.43 125.193 240.43 119.939C238.395 117.255 235.966 114.659 232.887 113.168C228.73 111.159 223.572 112.229 219.818 109.265C219.301 108.852 218.678 108.984 218.275 109.317C215.354 109.177 213.907 114.326 212.644 116.343C208.67 122.702 205.618 128.982 205.557 136.665C205.469 148.691 213.687 159.672 226.002 161.119C239.132 162.672 248.28 150.752 247.675 138.358ZM233.036 158.225C221.985 161.61 210.775 152.857 208.407 142.288C207.004 136.016 208.135 129.298 210.802 123.518C211.468 122.062 216.205 112.756 218.713 111.194C221.143 113.045 223.59 113.457 226.651 113.983C233.361 115.141 237.518 119.237 240.86 124.974C247.079 135.657 247.386 153.83 233.036 158.225Z" fill="#B4CCB4" />
	<path d="M215.626 127.272C213.345 128.184 212.573 131.49 214.626 133.087C215.24 133.56 216.073 132.806 215.503 132.21C214.415 131.069 214.591 128.956 215.985 128.122C216.424 127.868 216.134 127.07 215.626 127.272Z" fill="#B4CCB4" />
	<path d="M219.353 136.472C217.529 134.902 214.766 137.174 215.292 139.297C215.459 139.981 216.432 139.674 216.327 139.016C216.222 138.393 216.643 137.85 217.152 137.551C217.687 137.236 218.213 137.253 218.792 137.446C219.327 137.621 219.783 136.85 219.353 136.472Z" fill="#B4CCB4" />
	<path d="M226.16 93.4504C225.326 89.0035 223.862 83.0392 220.748 79.6623C220.511 79.4079 220.143 79.3202 219.801 79.3641C220.073 79.0045 220.134 78.4431 219.713 78.0572C219.248 77.6274 218.739 77.3906 218.204 77.2678C218.231 76.5836 217.871 75.8732 217.538 75.2768C217.178 74.6365 216.67 73.7769 215.942 73.4699C216.485 73.2682 216.898 72.7244 216.617 72.0227C214.766 67.4179 211.907 62.7605 207.872 59.752C207.793 59.2082 207.363 58.6819 206.732 58.7784C203.381 59.2959 200.057 60.1204 196.768 61.015C198.54 59.331 200.513 57.9364 202.68 56.6733C202.732 56.7172 202.794 56.7698 202.881 56.7786C203.416 56.84 203.916 57.1031 204.232 57.5417C204.53 57.9539 204.46 58.5328 204.89 58.8398C205.057 58.9626 205.355 58.9977 205.522 58.8398C206.188 58.217 205.627 57.2171 205.083 56.6909C204.723 56.34 204.285 56.112 203.82 56.0243C204.311 55.8927 204.697 55.4366 204.416 54.8402C202.776 51.2791 199.434 47.9461 196.338 45.6043C196.136 45.4551 195.908 45.4551 195.715 45.5341C195.531 45.3236 195.268 45.2008 194.9 45.271C194.821 45.2885 194.733 45.306 194.654 45.3148C194.373 44.1219 193.461 42.9291 192.646 42.2625C192.672 42.2186 192.707 42.1835 192.724 42.1397C192.961 42.0257 193.102 41.7362 192.926 41.438C189.497 35.7807 174.919 28.2025 169.911 35.7368C169.7 36.0613 169.709 36.3946 169.85 36.6665C168.28 39.2715 168.867 42.8326 170.148 45.9639C173.586 54.3929 178.971 62.4886 184.374 69.7598C190.032 77.373 196.452 84.4337 203.513 90.7665C208.933 95.6344 214.81 100.371 222.336 100.906C222.871 100.941 223.248 100.687 223.458 100.327C226.405 99.3182 226.704 96.3361 226.16 93.4504ZM215.073 74.04C215.196 74.7329 215.757 75.3645 216.02 76.0048C216.178 76.3819 216.266 76.8117 216.398 77.2152C215.801 77.2941 215.187 77.4257 214.591 77.5572C212.872 77.9344 211.17 78.3817 209.469 78.8378C211.126 77.0047 212.986 75.4259 215.073 74.04ZM192.891 44.3675C193.102 44.7535 193.189 45.1657 193.286 45.5779C190.269 46.1656 187.26 46.7883 184.26 47.4199C186.488 45.5604 188.953 44.0956 191.628 42.8501C191.733 42.9115 191.83 42.9817 191.918 43.0782C192.312 43.4115 192.646 43.9027 192.891 44.3675ZM222.643 98.5201C209.635 96.5466 198.82 83.5216 190.891 73.9874C186.725 68.9704 182.918 63.6639 179.463 58.1293C176.191 52.8842 168.753 42.9642 172.13 36.421C178.436 33.1143 185.699 38.0436 191.286 41.5345C187.164 42.8677 183.567 45.2534 180.506 48.3057C179.91 48.9022 180.156 50.2617 181.217 50.0424C185.857 49.1127 190.514 48.2531 195.137 47.2357C195.391 47.183 195.575 47.0427 195.707 46.8761C197.926 49.5512 199.961 52.472 202.232 55.0858C198.294 56.5155 194.935 59.2257 192.339 62.4973C191.584 63.4534 192.663 64.541 193.681 64.2515C198.11 62.971 202.601 61.9974 207.056 60.8396C209.793 64.6462 212.416 68.2248 214.328 72.5665C210.907 74.3997 207.96 76.9257 205.662 80.0921C204.986 81.0218 205.943 82.0129 206.925 81.7498C208.74 81.2586 210.565 80.7938 212.38 80.285C213.924 79.8553 217.187 78.18 218.608 79.5044C218.792 79.6711 218.976 79.7237 219.16 79.7149C219.046 79.8728 218.994 80.0921 219.055 80.3552C219.713 83.1181 221.248 85.6354 222.178 88.3369C223.055 90.8892 225.37 96.2747 222.941 98.6341C222.853 98.5815 222.765 98.5376 222.643 98.5201Z" fill="#B4CCB4" />
	<path d="M322.554 -1.11919C322.545 -1.14551 322.528 -1.15428 322.519 -1.18059C322.966 -4.7855 320.747 -7.96062 317.151 -9.3026C313.932 -10.5042 310.275 -9.785 306.933 -10.0481C301.416 -10.4867 296.574 -12.4251 291.391 -14.153C291.242 -14.2056 291.119 -14.1881 291.014 -14.1442C286.988 -15.5301 281.883 -12.7935 280.506 -8.82896C279.015 -4.52237 282.251 1.3367 287.145 0.591163C286.312 7.63433 277.269 16.5019 280.576 24.2292C281.313 25.9483 281.857 26.5447 283.751 27.0622C287.365 28.0446 288.4 26.4483 292.987 28.5884C295.303 29.6672 297.259 31.4302 299.565 32.5529C316.283 40.6925 316.783 16.2037 313.731 6.01168C315.923 6.7923 318.458 6.65197 320.379 5.2486C322.309 3.83646 323.335 1.16128 322.554 -1.11919ZM318.713 3.84523C316.8 4.95038 314.52 4.51183 312.494 4.05573C311.818 3.90662 311.441 4.78373 312.02 5.16966C312.029 5.17843 312.038 5.17843 312.047 5.1872C311.915 5.37139 311.845 5.60821 311.889 5.89766C312.853 11.6778 315.037 20.4138 312.353 26.0974C305.994 39.561 297.259 26.6237 289.803 25.1677C286.83 24.5888 284.26 26.2904 282.418 22.4136C281.111 19.6682 283.988 13.8267 285.172 11.4147C287.014 7.66941 288.891 4.74865 288.531 0.450826C288.514 0.222778 288.417 0.0648994 288.295 -0.0491238C288.347 -0.33857 288.233 -0.645556 287.891 -0.724497C284.049 -1.58406 281.076 -4.81181 283.102 -8.87281C285.084 -12.8724 288.838 -12.2321 292.478 -11.8374C292.627 -11.8199 292.759 -11.8637 292.864 -11.9427C295.943 -10.1972 299.311 -9.1798 302.863 -8.61845C309.573 -7.5747 319.695 -9.91657 320.896 -1.3297C320.782 -1.14551 320.73 -0.908689 320.8 -0.628015C321.221 1.21391 320.353 2.90672 318.713 3.84523Z" fill="#B4CCB4" />
	<path d="M314.906 -6.22395C307.837 -7.89923 300.25 -7.908 293.11 -9.01315C292.935 -9.03946 292.786 -9.00438 292.654 -8.93421C290.286 -10.285 286.242 -10.2236 285.085 -7.40805C283.909 -4.54868 286.655 -2.18926 289.242 -1.62792C291.049 3.65226 289.268 7.71326 286.733 12.3093C285.549 14.4582 283.778 17.072 283.62 19.6244C283.357 24.0625 287.128 23.8082 290.575 23.7643C294.645 25.5711 298.636 27.7025 302.741 29.2111C305.346 30.1672 307.617 29.9567 309.284 27.5709C313.696 21.2821 311.424 9.50256 309.994 2.58219C309.836 1.83665 308.591 1.99453 308.652 2.76639C309.214 9.68675 311.249 17.6772 308.951 24.5011C306.942 30.4742 300.934 26.3255 297.039 24.659C294.277 23.4749 291.496 22.5627 288.558 21.9838C286.339 20.9313 285.567 19.0104 286.891 15.2213C287.611 13.1689 289.137 11.3182 289.996 9.29206C291.549 5.66084 292.128 1.94191 290.207 -1.54021C290.356 -1.61037 290.435 -1.82965 290.294 -1.95245C288.882 -3.13654 285.418 -4.50483 286.532 -6.9081C287.751 -9.53942 290.979 -7.75889 292.961 -7.61855C292.987 -7.61855 293.005 -7.63609 293.031 -7.63609C296.408 -6.59234 300.057 -6.37306 303.556 -6.00468C307.214 -5.61875 310.907 -5.06617 314.59 -5.06617C316.178 -4.71533 317.169 -3.63649 317.283 -1.97876C317.371 -0.67187 316.994 1.98576 315.327 2.03839C313.319 2.09978 311.336 0.608704 309.319 1.21391C309.1 1.2753 308.994 1.58229 309.179 1.74894C310.529 2.95935 313.266 3.3365 315.029 3.51193C316.625 3.6698 317.66 3.04706 318.195 1.51212C319.09 -1.11919 318.792 -6.60111 314.906 -6.22395Z" fill="#B4CCB4" />
	<path d="M204.469 163.987C204.311 162.751 203.513 161.251 202.311 160.698C207.03 151.427 201.627 138.332 189.821 139.525C180.498 140.472 173.27 154.479 180.208 161.716C179.191 162.259 178.331 162.996 178.138 164.242C177.937 165.505 178.463 166.812 179.463 167.601C180.243 168.215 181.243 168.346 182.182 168.136C182.734 174.048 183.813 179.88 184.997 185.696C186.102 191.09 186.743 197.8 189.225 202.729C189.348 202.966 189.69 203.185 189.962 203.15C193.812 202.685 194.128 196.133 194.979 193.195C197.303 185.178 198.996 177.047 200.294 168.803C201.118 168.829 201.952 168.566 202.671 168.048C203.96 167.145 204.671 165.549 204.469 163.987ZM195.558 184.512C194.873 187.292 193.137 198.475 190.69 198.756C188.251 199.036 184.445 174.434 183.217 167.75C183.462 167.61 183.708 167.461 183.91 167.268C184.489 168.408 185.638 169.329 186.857 169.618C188.655 170.048 191.023 169.197 192.312 167.671C192.882 168.566 193.996 169.127 195.119 168.987C195.926 168.89 196.935 168.268 197.636 167.452C197.829 167.724 198.084 167.978 198.391 168.189C198.54 168.294 198.698 168.382 198.856 168.461C197.952 173.855 196.856 179.205 195.558 184.512ZM202.382 165.803C201.978 166.426 201.18 167.022 200.426 167.075C199.584 167.136 198.32 166.522 198.522 165.496C198.557 165.303 198.487 165.127 198.373 164.987C198.347 164.908 198.321 164.829 198.285 164.75C198.154 164.487 197.768 164.391 197.522 164.549C196.628 165.11 196.558 166.399 195.654 167.04C194.742 167.689 193.128 167.285 193.172 166.005C193.181 165.97 193.198 165.943 193.207 165.917C193.33 165.259 192.646 164.908 192.146 165.303C190.795 166.364 189.935 167.873 188.015 167.978C186.366 168.075 185.225 166.899 184.839 165.452C184.866 165.163 184.848 164.864 184.769 164.549C184.734 164.426 184.664 164.338 184.594 164.277C184.585 164.268 184.585 164.259 184.576 164.25C184.568 164.242 184.55 164.233 184.541 164.224C184.392 164.093 184.173 164.075 184.015 164.215C183.866 164.277 183.725 164.382 183.673 164.549C183.471 165.136 183.015 165.768 182.462 166.154C182.322 166.171 182.199 166.241 182.12 166.347C181.55 166.61 180.928 166.592 180.366 165.978C179.217 164.698 180.024 163.435 181.085 162.531C181.094 162.54 181.094 162.54 181.103 162.549C181.436 162.821 181.954 162.479 181.726 162.075C181.708 162.049 181.699 162.014 181.682 161.987C181.813 161.707 181.638 161.382 181.349 161.321C177.752 154.085 179.743 143.244 188.927 141.34C200.119 139.016 205.127 152.032 200.496 160.453C200.154 161.075 200.618 161.645 201.145 161.742C201.697 162.268 202.267 162.61 202.592 163.347C202.934 164.163 202.873 165.057 202.382 165.803Z" fill="#B4CCB4" />
	<path d="M192.549 190.836C192.313 189.739 191.532 188.704 190.918 187.774C190.278 186.81 189.576 185.897 188.831 185.012C188.462 184.582 187.69 185.161 188.041 185.626C188.743 186.564 189.401 187.538 190.015 188.538C190.576 189.458 190.979 190.529 191.69 191.344C192.05 191.756 192.655 191.3 192.549 190.836Z" fill="#B4CCB4" />
	<path d="M193.698 184.582C193.005 183.441 192.049 182.459 191.277 181.363C190.506 180.266 189.778 179.135 189.111 177.968C188.83 177.486 188.12 177.907 188.365 178.407C189.506 180.722 190.883 183.503 192.847 185.24C193.286 185.634 194.032 185.134 193.698 184.582Z" fill="#B4CCB4" />
	<path d="M195.207 177.863C194.084 175.907 192.602 174.1 191.269 172.276C190.865 171.732 189.962 172.232 190.348 172.82C191.611 174.749 192.821 176.802 194.295 178.574C194.716 179.091 195.523 178.424 195.207 177.863Z" fill="#B4CCB4" />
	<path d="M164.578 142.139C164.228 141.84 163.833 141.832 163.5 141.981C163.096 139.963 159.368 138.99 157.702 138.718C157.956 137.832 158.211 136.955 158.535 136.095C158.798 135.394 159.597 134.367 159.561 133.613C159.509 132.534 158.114 132.131 157.255 132.227C153.948 132.596 154.053 137.56 154.834 140.016C154.816 139.998 154.808 139.981 154.79 139.972C153.159 138.779 151.097 138.858 149.624 140.13C149.562 140.086 149.501 140.051 149.413 140.051C143.019 140.069 135.432 143.454 134.406 150.532C133.45 157.137 138.949 162.075 144.616 164.049C151.913 166.592 160.272 165.987 165.271 159.532C169.42 154.181 169.92 146.77 164.578 142.139ZM154.325 140.761C154.667 140.946 154.957 140.709 154.992 140.419C155.106 140.612 155.439 140.595 155.421 140.332C155.36 138.832 155.439 137.209 155.755 135.744C155.983 134.683 157.132 132.754 158.29 133.718C157.439 135.446 156.685 137.262 156.264 139.148C156.202 139.411 156.299 139.621 156.456 139.753C156.535 140.06 156.79 140.332 157.255 140.384C158.044 140.481 160.439 140.858 161.009 141.568C162.044 142.867 159.404 141.849 158.904 141.665C158.553 141.533 158.027 141.814 157.965 142.191C157.886 142.709 157.834 143.226 157.79 143.735C157.211 143.191 156.632 142.639 156.062 142.095C155.728 141.779 155.123 141.814 154.895 142.244C154.702 142.595 154.501 142.928 154.29 143.244C154.36 142.577 154.325 141.963 154.044 141.551C153.588 140.902 152.474 140.709 151.448 140.604C152.317 140.191 153.299 140.209 154.325 140.761ZM163.57 158.374C159.509 163.724 152.229 164.478 146.15 162.522C139.748 160.453 134.178 155.006 137.353 147.752C139.213 143.516 144.923 142.182 148.957 140.981C148.87 141.349 149.001 141.77 149.44 141.849C149.983 141.946 152.29 142.007 152.624 142.402C153.088 142.954 152.352 145.138 152.246 145.779C152.124 146.489 152.913 147.024 153.483 146.498C154.369 145.673 155.079 144.805 155.711 143.814L157.974 145.972C158.439 146.419 159.263 146.103 159.263 145.436C159.254 144.735 159.298 144.077 159.368 143.402C160.526 143.744 162.245 144.059 163.07 143.419C163.105 143.463 163.123 143.507 163.175 143.551C167.859 147.603 166.982 153.883 163.57 158.374Z" fill="#B4CCB4" />
	<path d="M259.525 75.5136C257.806 72.9612 254.648 70.3211 251.499 70.4263C251.429 70.1983 251.28 69.9966 251.026 69.9176C249.57 69.4264 251.149 67.5407 251.552 66.9004C251.956 66.2513 252.254 65.5672 252.262 64.7953C252.271 63.5674 251.456 62.4184 250.149 62.471C246.518 62.6026 246.5 68.5406 247.298 70.8912C247.307 70.9263 247.333 70.9614 247.351 70.9877C244.693 70.3649 241.79 71.4701 240.255 73.7418C236.518 71.8034 230.809 79.8465 229.958 82.6006C227.239 91.4506 236.817 95.7221 243.807 97.1605C251.289 98.7042 261.051 98.0113 264.744 90.0998C266.7 85.9248 265.831 75.3995 259.525 75.5136ZM241.272 75.0136C241.386 74.8119 241.527 74.6189 241.685 74.4435C243.097 72.698 245.307 71.8122 247.526 71.8736C247.886 71.8823 248.017 71.4964 247.886 71.2333C248.123 71.207 248.324 71.0491 248.298 70.7509C248.14 69.1896 248.21 67.5933 248.728 66.1022C248.868 65.7075 249.044 65.0409 249.368 64.7515C249.5 64.3831 249.763 64.348 250.131 64.6462C250.728 64.5936 250.894 64.8304 250.631 65.3391C250.5 66.0408 249.745 66.7337 249.412 67.3389C248.64 68.7248 248.754 70.7947 250.377 71.2947C250.377 71.514 250.482 71.7245 250.763 71.8473C252.157 72.4437 253.613 72.7068 254.92 73.5313C255.438 73.8558 255.902 74.2418 256.332 74.654C255.253 74.4172 254.14 74.3382 252.999 74.4347C252.727 74.3382 252.385 74.4698 252.245 74.7066C251.85 75.3995 251.999 76.1977 252.026 76.9696C252.043 77.3643 252.087 77.7502 252.122 78.1449C251.166 77.5134 250.385 76.6713 249.736 75.6802C249.579 75.4434 249.359 75.3908 249.158 75.4434C248.386 75.5486 247.693 76.1889 247.114 76.9345C247.088 76.2766 247.026 75.6188 246.921 74.9785C246.93 74.9698 246.947 74.9698 246.965 74.9698C247.509 74.768 247.491 73.7857 246.816 73.8734C245.658 74.0137 244.518 74.3207 243.377 74.5751C242.684 74.7329 241.965 74.961 241.255 75.0487C241.264 75.0312 241.264 75.0312 241.272 75.0136ZM263.551 86.3546C263.086 89.0736 261.709 91.205 259.621 92.968C255.131 96.7483 248.517 96.1168 243.228 94.9064C241.606 94.538 240.062 94.0907 238.518 93.4504C234.475 91.7751 231.326 87.9509 231.879 83.1268C232.124 81.0218 236.782 75.268 239.79 74.4961C239.422 75.3118 239.422 76.4082 240.509 76.5836C241.316 76.7152 242.395 76.1538 243.176 75.9609C244.158 75.7153 245.158 75.4872 246.132 75.2066C245.93 76.5135 245.947 77.873 245.798 79.1886C245.711 79.9254 246.807 80.1271 247.14 79.5482C247.535 78.8729 247.982 78.2326 248.517 77.6537C248.745 77.4081 249.008 77.1888 249.228 76.952C250.061 78.3642 251.271 79.5307 252.675 80.3815C253.236 80.7236 253.999 80.285 253.99 79.6272C253.973 78.6799 253.894 77.7239 253.789 76.7854C253.745 76.3819 253.727 75.9872 253.657 75.6188C255.438 75.9258 257.095 76.5047 258.648 77.5046C259.016 77.7414 259.411 77.6537 259.692 77.4169C262.516 78.6536 263.981 83.8285 263.551 86.3546Z" fill="#B4CCB4" />
	<path d="M87.5068 120C91.0854 126.868 94.3658 133.464 100.62 138.279C101.567 139.007 102.497 138.209 102.611 137.271C102.996 137.735 103.453 138.174 104.005 138.56C99.3565 138.042 96.4708 143.489 99.5582 147.164C102.733 150.945 107.382 149.445 109.891 146.191C111.583 150.787 115.215 155.506 120.626 153.295C123.293 152.208 124.538 148.936 123.644 146.507C125.801 146.98 128.178 147.743 129.678 146.2C131.862 143.954 129.871 139.455 128.336 136.639C131.827 136.236 135.634 135.087 136.739 131.412C137.519 128.824 136.572 126.088 134.257 124.956C134.862 123.947 135.318 122.833 135.59 121.667C140.256 124.254 145.703 120.939 145.238 115.457C148.159 117.395 152.334 116.808 154.676 113.755C158.5 108.782 155.912 103.002 151.913 99.213C156.798 97.6079 159.886 92.2312 156.658 87.3019C156.123 86.4862 154.456 85.3196 152.737 84.5653C155.754 82.8023 158.21 79.8465 157.824 76.1626C157.535 73.3997 155.711 71.0491 153.211 70.2071C154.719 68.1108 155.64 65.497 154.114 63.1288C153.114 61.5764 151.264 60.6378 149.58 61.015C149.843 57.7083 147.975 53.8929 144.203 54.1473C141.537 54.3227 139.721 56.5944 139.686 58.9626C133.774 57.261 128.485 63.9358 132.467 69.5142C132.125 69.5054 131.792 69.5405 131.45 69.5843C132.081 69.2598 132.029 68.1634 131.152 68.0933C114.53 66.7513 99.8389 70.5755 84.0861 75.3732C79.8759 76.6538 75.5782 77.6976 71.1312 77.3643C67.3421 77.0836 63.8337 75.6188 60.0972 75.1101C55.3433 74.461 49.4667 75.3118 47.0459 80.0482C40.5991 92.661 62.1847 96.0817 68.7718 99.5638C77.4639 104.16 83.0423 111.449 87.5068 120ZM134.607 129.991C133.906 132.227 132.555 133.517 130.555 133.841C129.152 134.332 127.74 134.438 126.266 134.569C125.582 134.631 125.135 135.595 125.485 136.174C127.055 138.7 130.406 144.507 125.696 145.007C124.565 145.129 123.468 144.796 122.328 144.7C121.951 144.401 121.512 144.156 120.986 143.98C119.968 143.638 119.512 144.884 120.135 145.542C120.144 145.691 120.197 145.831 120.275 145.945C121.275 150.524 120.083 152.295 116.671 151.252C115.495 150.936 114.601 150.269 113.978 149.234C112.311 147.428 111.768 145.366 111.303 142.972C111.083 141.832 109.461 141.796 109.101 142.858C108.294 145.252 106.11 147.699 103.172 146.892C99.6196 145.919 99.7775 139.797 104.295 140.305C105.023 140.384 105.277 139.718 105.084 139.191C105.373 139.332 105.68 139.472 106.005 139.586C107.294 140.051 107.908 138.069 106.654 137.569C100.128 134.955 103.847 125.754 110.408 128.412C111.355 128.798 112.241 127.429 111.504 126.719C108.645 123.965 110.241 120.202 113.302 119.386C113.601 121.658 115.565 123.632 118.626 123.5C118.837 126.403 121.24 129.192 124.635 129.745C127.88 130.271 130.731 129.043 132.748 126.921L134.607 129.991ZM94.6815 112.168C94.2868 104.177 105.163 108.677 110.689 109.773C110.452 110.598 110.426 111.51 110.697 112.519C111.206 114.378 112.522 115.632 114.118 116.062C113.802 116.527 113.583 117.027 113.443 117.527C109.329 117.851 106.821 122.062 108.373 125.798C106.979 125.719 105.733 126.07 104.681 126.693C104.663 126.605 104.663 126.517 104.628 126.421C102.488 121.272 94.9622 117.966 94.6815 112.168ZM134.239 69.979C134.528 69.637 134.642 69.137 134.292 68.6809C130.731 64.0761 135.993 58.6556 140.721 61.8132C141.835 62.5587 142.782 61.1027 142.124 60.1554C140.405 57.6645 144.334 55.191 146.597 57.2873C148.027 58.6117 148.045 60.7431 147.729 62.4973C147.676 62.7955 147.808 63.006 148.001 63.1376C148.185 63.3481 148.466 63.4621 148.79 63.3569C150.588 62.7868 152.483 63.6639 152.597 65.9356C152.676 67.4793 151.202 69.1896 150.229 70.1632C149.571 70.8298 149.869 72.2157 150.948 72.2069C154.184 72.1718 156.211 75.4259 155.465 78.4782C154.86 80.9604 152.781 82.6708 150.641 83.8987C148.904 83.5742 147.597 84.0917 148.106 86.4072C148.334 87.4685 149.887 87.1265 149.746 86.0652C151.044 85.4161 152.149 85.6091 153.044 86.644C154.167 87.1879 154.956 88.0562 155.404 89.2491C156.763 93.3715 154.281 97.3009 149.711 97.6342C148.702 97.7044 148.229 98.8709 149.106 99.52C152.062 101.713 154.807 104.783 154.465 108.782C154.018 114.062 148.281 116.527 144.694 112.431C144.054 111.703 142.703 112.554 143.238 113.422C143.449 113.764 143.694 114.062 143.949 114.352C143.887 114.466 143.852 114.589 143.87 114.747C143.975 120.378 141.221 121.948 135.607 119.448C134.993 118.913 134.055 119.158 133.958 120.027C133.643 122.877 132.353 125.447 129.731 126.938C128.968 127.228 128.213 127.508 127.45 127.798C122.696 128.64 121.021 125.991 122.424 119.843C123.38 119.044 122.126 117.737 121.161 118.43C119.907 119.334 119.162 120.439 118.819 121.597C118.232 119.711 117.644 117.834 117.056 115.948C118.179 115.317 117.337 113.808 116.188 114.211C112.873 114.264 112.285 112.94 114.434 110.256C114.451 107.686 115.671 106.396 118.118 106.37C118.793 106.212 119.126 105.361 118.626 104.826C116.197 102.239 116.644 99.1954 118.495 97.45C119.477 98.0552 120.425 97.1869 120.442 96.3098C121.679 95.8975 123.135 95.8975 124.652 96.5466C125.196 96.7746 125.643 96.0466 125.38 95.6256C126.047 95.6256 126.371 94.6433 125.626 94.4503C120.232 93.0732 123.503 87.3194 126.801 86.5914C129.336 86.0301 131.538 87.144 133.564 88.5912C134.09 88.9684 135.002 88.4158 134.783 87.7492C133.686 84.3899 135.379 79.978 139.256 79.3027C143.221 78.6098 145.896 82.2497 146.51 85.6529C146.65 86.416 147.79 86.3107 147.834 85.5564C148.132 81.092 143.913 77.1888 139.467 77.6537C136.379 77.9695 134.221 80.1447 133.318 82.8199C133.186 82.7585 133.02 82.7234 132.836 82.7234C129.582 82.7146 126.398 80.2236 126.564 76.7327C126.731 73.198 130.222 70.9175 133.511 71.1544C134.16 71.1894 134.485 70.4351 134.239 69.979ZM132.739 84.9512C132.801 84.9512 132.853 84.9161 132.915 84.9074C132.88 85.3284 132.871 85.7582 132.897 86.1792C129.459 84.1794 124.538 83.4338 122.144 87.258C120.6 89.7227 121.135 93.1259 123.31 94.7573C121.916 94.4328 120.6 94.5555 119.451 94.9853C117.232 93.5556 115.101 92.0207 113.153 90.2314C112.083 89.2491 111.04 88.1965 110.075 87.1001C108.364 85.1442 107.935 84.9775 108.961 82.1971C110.013 79.3465 110.662 79.4605 113.416 78.829C114.504 78.5834 115.609 78.3993 116.706 78.2589C119.319 77.9168 121.872 77.9168 124.486 78.0309C125.056 81.9077 128.757 85.1968 132.739 84.9512ZM50.9314 88.3193C50.8613 85.5038 50.7911 82.6883 50.7122 79.8728C52.3874 78.4782 54.2557 77.8028 56.3169 77.8467C62.29 77.3292 68.0175 80.4868 74.0871 80.1973C79.8321 79.9254 85.2701 77.8291 90.6643 76.0223C103.672 71.6806 117.065 69.7598 130.766 69.6808C127.687 70.3123 125.003 72.7945 124.521 76.0047C119.091 75.3557 106.566 74.9698 105.014 81.3726C104.374 84.0127 106.084 86.3458 107.689 88.2579C110.39 91.4681 113.583 94.2047 117.065 96.5203C115.048 98.5727 114.39 101.914 116.346 104.923C114.574 105.528 112.785 106.546 111.662 107.958C105.794 106.651 95.8656 100.809 92.4098 108.879C89.068 116.694 99.6284 121.763 102.19 127.649C102.339 128 102.575 128.193 102.839 128.298C101.233 130.271 100.655 133.096 101.584 135.499C91.3397 126.763 88.9365 112.203 78.841 103.116C74.7624 99.4498 70.0524 96.5904 64.9125 94.6871C62.1058 93.6434 59.1236 93.0645 56.352 91.9067C54.7205 91.2225 51.8349 89.9858 50.9314 88.3193Z" fill="#B4CCB4" />
	<path d="M134.757 -14.7845C136.8 -13.1706 138.879 -11.6094 140.931 -10.0043C141.466 -9.58327 142.168 -10.0481 142.37 -10.5569C143.335 -13.0391 143.238 -16.1967 141.73 -18.4596C141.545 -18.7315 141.309 -18.8806 141.072 -18.942C141.116 -19.1262 141.08 -19.3455 140.958 -19.5033C140.765 -19.7577 140.484 -19.863 140.361 -20.1787C140.274 -20.4155 140.282 -20.705 140.326 -20.9506C140.379 -21.2225 140.51 -21.5031 140.695 -21.7137C140.73 -21.7224 140.774 -21.7224 140.809 -21.74C141.063 -21.8628 141.309 -21.968 141.563 -22.0908C141.686 -22.0908 141.782 -22.1347 141.844 -22.2224C144.598 -23.4679 147.203 -24.3976 150.352 -24.4941C150.86 -24.5116 151.43 -24.8975 151.395 -25.4764C151.194 -28.5288 148.957 -30.8443 145.984 -31.4758C142.466 -32.2214 139.151 -30.2391 136.616 -27.985C135.502 -30.5373 133.73 -32.7915 131.59 -34.572C131.055 -35.0194 130.178 -35.0808 129.792 -34.3703C128.95 -32.8354 128.389 -31.125 128.161 -29.3883C122.574 -34.2036 113.399 -32.4056 107.514 -28.0288C101.523 -23.5731 91.2082 -12.5128 95.357 -4.09259C99.3829 4.0645 116.776 3.31896 123.924 2.30151C131.529 1.24022 141.642 -6.88179 134.757 -14.7845ZM131.169 -31.9758C133.257 -30.1339 134.739 -27.9148 135.967 -25.3624C136.335 -24.5993 137.581 -25.073 137.362 -25.8887C137.318 -26.0378 137.265 -26.1869 137.221 -26.336C137.318 -26.3711 137.405 -26.4062 137.493 -26.4851C139.449 -28.0639 141.879 -29.6602 144.51 -29.555C146.466 -29.476 148.536 -28.3358 149.185 -26.45C145.826 -26.2132 142.405 -25.2922 139.695 -23.2661C139.247 -22.9328 139.291 -22.4592 139.563 -22.1084C138.809 -20.933 138.984 -18.9771 140.098 -18.635C139.844 -18.3631 139.73 -17.9509 139.932 -17.486C140.686 -15.7581 141.028 -14.1618 140.782 -12.4163C138.791 -13.6794 136.809 -14.9687 134.8 -16.1967C134.274 -16.5212 133.581 -15.7318 134.099 -15.3195C134.125 -15.302 134.151 -15.2757 134.178 -15.2582C133.748 -15.3897 133.265 -15.1968 132.985 -14.8547C132.801 -14.8371 132.625 -14.7933 132.45 -14.6617C131.029 -13.618 129.511 -13.0215 127.845 -12.7847C128.494 -15.0301 129.134 -17.2755 129.775 -19.5209C129.941 -20.0998 129.599 -20.6348 129.055 -20.8365C127.398 -21.4505 125.845 -22.1873 124.337 -23.0293C126.064 -23.0205 127.784 -22.9241 129.52 -22.9241C129.608 -22.9241 129.687 -22.9416 129.757 -22.9679C130.432 -22.8977 131.117 -23.3714 130.889 -24.2397C130.845 -24.3888 130.818 -24.5467 130.783 -24.6958C131.073 -24.8712 131.266 -25.2396 131.081 -25.5992C130.889 -25.9939 130.66 -26.336 130.441 -26.6956C130.257 -28.4849 130.459 -30.2391 131.169 -31.9758ZM97.2778 -10.5569C100.093 -22.7048 117.258 -35.8526 128.091 -26.7132C128.161 -25.9238 128.327 -25.1431 128.555 -24.3713C126.073 -25.1256 123.451 -25.1519 120.863 -24.9677C119.802 -24.8975 119.363 -23.6257 120.276 -22.9942C122.53 -21.4242 124.933 -20.1875 127.468 -19.1788C126.784 -16.7492 126.099 -14.3284 125.415 -11.8988C125.249 -11.2936 125.696 -10.5481 126.38 -10.5656C129.003 -10.6446 131.213 -11.3813 133.327 -12.8373C141.826 4.25746 93.6378 5.15211 97.2778 -10.5569Z" fill="#B4CCB4" />
</svg>
