<svg width="259" height="32" viewBox="0 0 259 32" fill="none" xmlns="http://www.w3.org/2000/svg">
	<rect x="0.661765" y="0.77944" width="43.6765" height="30.4412" rx="4.63235" fill="white" stroke="#D9D9D9" stroke-width="1.32353" />
	<path fill-rule="evenodd" clip-rule="evenodd" d="M12.5064 11.16C12.1287 11.6258 11.5244 11.9931 10.92 11.9407C10.8445 11.3109 11.1404 10.6418 11.4866 10.2285C11.8643 9.74967 12.5253 9.40856 13.0604 9.38232C13.1234 10.0383 12.8779 10.6812 12.5064 11.16ZM13.054 12.0651C12.5216 12.0332 12.0358 12.232 11.6434 12.3925C11.3908 12.4958 11.177 12.5833 11.0143 12.5833C10.8318 12.5833 10.6091 12.4912 10.3591 12.3877C10.0315 12.2521 9.657 12.097 9.26426 12.1045C8.36405 12.1176 7.52679 12.6489 7.06724 13.4951C6.12296 15.1876 6.82172 17.6934 7.73453 19.071C8.18149 19.7532 8.71658 20.501 9.42164 20.4748C9.73182 20.4626 9.95495 20.3639 10.1859 20.2618C10.4517 20.1443 10.7279 20.0222 11.1591 20.0222C11.5754 20.0222 11.8395 20.1411 12.093 20.2552C12.334 20.3638 12.5655 20.4681 12.9092 20.4617C13.6394 20.4485 14.099 19.7794 14.5459 19.0972C15.0283 18.365 15.2402 17.6504 15.2724 17.542L15.2762 17.5294C15.2754 17.5286 15.2694 17.5258 15.2589 17.5208C15.0977 17.4438 13.8653 16.8559 13.8535 15.2794C13.8416 13.9561 14.831 13.2857 14.9867 13.1802C14.9962 13.1737 15.0026 13.1694 15.0055 13.1672C14.376 12.1963 13.3939 12.0913 13.054 12.0651ZM18.1094 20.3897V10.163H21.7921C23.6932 10.163 25.0215 11.5274 25.0215 13.5216C25.0215 15.5158 23.668 16.8934 21.7417 16.8934H19.6328V20.3897H18.1094ZM19.6326 11.5014H21.389C22.7109 11.5014 23.4664 12.2361 23.4664 13.5284C23.4664 14.8207 22.7109 15.5619 21.3827 15.5619H19.6326V11.5014ZM30.0513 19.163C29.6484 19.9632 28.7608 20.4684 27.8039 20.4684C26.3875 20.4684 25.3991 19.5893 25.3991 18.2643C25.3991 16.9523 26.356 16.1979 28.1249 16.0864L30.0261 15.9683V15.4042C30.0261 14.5711 29.5036 14.1185 28.5719 14.1185C27.8039 14.1185 27.2436 14.5317 27.1303 15.1615H25.758C25.802 13.8364 26.9981 12.8721 28.616 12.8721C30.3597 12.8721 31.4929 13.8233 31.4929 15.2992V20.3896H30.0827V19.163H30.0513ZM28.2125 19.2551C27.4004 19.2551 26.8842 18.8484 26.8842 18.2252C26.8842 17.5823 27.3815 17.2084 28.3321 17.1494L30.0255 17.0379V17.6151C30.0255 18.5728 29.2449 19.2551 28.2125 19.2551ZM36.1702 20.7896C35.5596 22.5804 34.8608 23.1708 33.3751 23.1708C33.2618 23.1708 32.8841 23.1577 32.796 23.1315V21.9048C32.8904 21.9179 33.1233 21.931 33.2429 21.931C33.9165 21.931 34.2942 21.6358 34.5272 20.8683L34.6657 20.4157L32.0846 12.9703H33.6773L35.4714 19.0119H35.5029L37.2971 12.9703H38.8457L36.1702 20.7896Z" fill="black" />
	<rect x="49.6471" y="1.11776" width="42.7059" height="29.7647" rx="4.52941" fill="white" stroke="#D9D9D9" stroke-width="1.29412" />
	<path fill-rule="evenodd" clip-rule="evenodd" d="M62.9117 20.9931H60.2462L58.2474 13.1431C58.1525 12.782 57.9511 12.4628 57.6547 12.3124C56.9152 11.9342 56.1004 11.6333 55.2114 11.4816V11.1793H59.5054C60.098 11.1793 60.5425 11.6333 60.6166 12.1606L61.6537 17.823L64.318 11.1793H66.9094L62.9117 20.9931ZM68.3908 20.9931H65.8734L67.9463 11.1793H70.4637L68.3908 20.9931ZM73.7206 13.8982C73.7946 13.3696 74.2391 13.0674 74.7577 13.0674C75.5725 12.9915 76.4602 13.1433 77.201 13.5201L77.6455 11.4071C76.9047 11.1049 76.0898 10.9531 75.3503 10.9531C72.907 10.9531 71.1291 12.3125 71.1291 14.1991C71.1291 15.6343 72.3884 16.3879 73.2774 16.8419C74.2391 17.2946 74.6095 17.5968 74.5354 18.0495C74.5354 18.7285 73.7946 19.0307 73.0552 19.0307C72.1662 19.0307 71.2773 18.8044 70.4637 18.4263L70.0192 20.5405C70.9082 20.9173 71.8699 21.0691 72.7588 21.0691C75.4985 21.1437 77.201 19.7856 77.201 17.7473C77.201 15.1803 73.7206 15.0299 73.7206 13.8982ZM86.0117 20.9931L84.0128 11.1793H81.8658C81.4214 11.1793 80.9769 11.4816 80.8287 11.9342L77.1274 20.9931H79.7189L80.2361 19.5592H83.4202L83.7165 20.9931H86.0117ZM82.2357 13.8226L82.9752 17.5212H80.9023L82.2357 13.8226Z" fill="#172B85" />
	<rect x="97.6471" y="1.11776" width="42.7059" height="29.7647" rx="4.52941" fill="white" stroke="#D9D9D9" stroke-width="1.29412" />
	<path d="M115.118 30.1765L139.706 22.7354V26.2942C139.706 28.4383 137.968 30.1765 135.824 30.1765H115.118Z" fill="#FD6020" />
	<path fill-rule="evenodd" clip-rule="evenodd" d="M135.039 12.2611C136.391 12.2611 137.135 12.8869 137.135 14.0689C137.203 14.9727 136.594 15.7376 135.783 15.8766L137.609 18.4492H136.188L134.633 15.9462H134.498V18.4492H133.348V12.2611H135.039ZM134.498 15.1115H134.836C135.58 15.1115 135.918 14.7638 135.918 14.1381C135.918 13.5818 135.58 13.2342 134.836 13.2342H134.498V15.1115ZM129.357 18.4492H132.604V17.4063H130.507V15.7376H132.536V14.6946H130.507V13.3041H132.604V12.2611H129.357V18.4492ZM125.976 16.4329L124.42 12.2611H123.203L125.705 18.5883H126.314L128.817 12.2611H127.599L125.976 16.4329ZM112.245 15.3902C112.245 17.1285 113.598 18.5886 115.289 18.5886C115.83 18.5886 116.303 18.4495 116.777 18.2409V16.8504C116.439 17.2675 115.965 17.5456 115.424 17.5456C114.342 17.5456 113.462 16.7113 113.462 15.5988V15.4598C113.395 14.3473 114.274 13.3739 115.356 13.3044C115.897 13.3044 116.439 13.5825 116.777 13.9997V12.6091C116.371 12.331 115.83 12.2614 115.356 12.2614C113.598 12.1224 112.245 13.5825 112.245 15.3902ZM110.149 14.6251C109.472 14.347 109.269 14.2079 109.269 13.8603C109.337 13.4431 109.675 13.0955 110.081 13.165C110.419 13.165 110.757 13.3736 111.028 13.6517L111.637 12.8174C111.163 12.4002 110.554 12.1221 109.946 12.1221C108.999 12.0525 108.187 12.8174 108.119 13.7908V13.8603C108.119 14.6946 108.458 15.1813 109.54 15.529C109.81 15.5985 110.081 15.7376 110.352 15.8766C110.554 16.0157 110.69 16.2243 110.69 16.5024C110.69 16.9891 110.284 17.4063 109.878 17.4063H109.81C109.269 17.4063 108.796 17.0586 108.593 16.5719L107.849 17.3367C108.255 18.1016 109.066 18.5187 109.878 18.5187C110.96 18.5883 111.84 17.7539 111.907 16.6415V16.4329C111.84 15.5985 111.501 15.1813 110.149 14.6251ZM106.226 18.4492H107.375V12.2611H106.226V18.4492ZM100.882 12.2611H102.573H102.911C104.535 12.3306 105.82 13.7212 105.752 15.3899C105.752 16.2938 105.346 17.1281 104.67 17.7539C104.061 18.2406 103.317 18.5187 102.573 18.4492H100.882V12.2611ZM102.371 17.406C102.912 17.4755 103.52 17.2669 103.926 16.9193C104.332 16.5021 104.535 15.9459 104.535 15.3201C104.535 14.7639 104.332 14.2076 103.926 13.7905C103.52 13.4428 102.912 13.2342 102.371 13.3038H102.032V17.406H102.371Z" fill="black" />
	<path fill-rule="evenodd" clip-rule="evenodd" d="M120.226 12.1177C118.535 12.1177 117.115 13.5083 117.115 15.316C117.115 17.0542 118.468 18.5143 120.226 18.5839C121.985 18.6534 123.338 17.1933 123.405 15.3855C123.338 13.5778 121.985 12.1177 120.226 12.1177V12.1177Z" fill="#FD6020" />
	<rect x="145.5" y="0.5" width="64" height="31" rx="3.5" fill="white" stroke="#D9D9D9" />
	<g clip-path="url(#clip0_1997_10491)">
		<path d="M158.708 9.04199H152.292C151.785 9.04199 151.375 9.4524 151.375 9.95866V13.167C151.375 13.6733 151.785 14.0837 152.292 14.0837H158.708C159.215 14.0837 159.625 13.6733 159.625 13.167V9.95866C159.625 9.4524 159.215 9.04199 158.708 9.04199Z" stroke="#1A1A1A" stroke-width="0.916667" stroke-linecap="round" stroke-linejoin="round" />
		<path d="M153.208 9.04199V7.20866C153.208 6.60087 153.45 6.01798 153.879 5.58821C154.309 5.15843 154.892 4.91699 155.5 4.91699C156.108 4.91699 156.691 5.15843 157.12 5.58821C157.55 6.01798 157.792 6.60087 157.792 7.20866V9.04199" stroke="#1A1A1A" stroke-width="0.916667" stroke-linecap="round" stroke-linejoin="round" />
	</g>
	<path d="M166.278 13.077C165.772 13.077 165.317 12.989 164.914 12.813C164.518 12.6297 164.206 12.3803 163.979 12.065C163.752 11.7423 163.634 11.372 163.627 10.954H164.694C164.731 11.3133 164.877 11.6177 165.134 11.867C165.398 12.109 165.779 12.23 166.278 12.23C166.755 12.23 167.129 12.1127 167.4 11.878C167.679 11.636 167.818 11.328 167.818 10.954C167.818 10.6607 167.737 10.4223 167.576 10.239C167.415 10.0557 167.213 9.91633 166.971 9.821C166.729 9.72567 166.403 9.623 165.992 9.513C165.486 9.381 165.079 9.249 164.771 9.117C164.47 8.985 164.21 8.77967 163.99 8.501C163.777 8.215 163.671 7.83367 163.671 7.357C163.671 6.939 163.777 6.56867 163.99 6.246C164.203 5.92333 164.5 5.674 164.881 5.498C165.27 5.322 165.713 5.234 166.212 5.234C166.931 5.234 167.517 5.41367 167.972 5.773C168.434 6.13233 168.694 6.609 168.753 7.203H167.653C167.616 6.90967 167.462 6.653 167.191 6.433C166.92 6.20567 166.56 6.092 166.113 6.092C165.695 6.092 165.354 6.202 165.09 6.422C164.826 6.63467 164.694 6.93533 164.694 7.324C164.694 7.60267 164.771 7.83 164.925 8.006C165.086 8.182 165.281 8.31767 165.508 8.413C165.743 8.501 166.069 8.60367 166.487 8.721C166.993 8.86033 167.4 8.99967 167.708 9.139C168.016 9.271 168.28 9.48 168.5 9.766C168.72 10.0447 168.83 10.426 168.83 10.91C168.83 11.284 168.731 11.636 168.533 11.966C168.335 12.296 168.042 12.5637 167.653 12.769C167.264 12.9743 166.806 13.077 166.278 13.077ZM175.803 9.755C175.803 9.94567 175.792 10.1473 175.77 10.36H170.952C170.989 10.954 171.19 11.4197 171.557 11.757C171.931 12.087 172.382 12.252 172.91 12.252C173.343 12.252 173.702 12.153 173.988 11.955C174.281 11.7497 174.487 11.4783 174.604 11.141H175.682C175.521 11.7203 175.198 12.1933 174.714 12.56C174.23 12.9193 173.629 13.099 172.91 13.099C172.338 13.099 171.825 12.9707 171.37 12.714C170.923 12.4573 170.571 12.0943 170.314 11.625C170.057 11.1483 169.929 10.5983 169.929 9.975C169.929 9.35167 170.054 8.80533 170.303 8.336C170.552 7.86667 170.901 7.50733 171.348 7.258C171.803 7.00133 172.323 6.873 172.91 6.873C173.482 6.873 173.988 6.99767 174.428 7.247C174.868 7.49633 175.205 7.841 175.44 8.281C175.682 8.71367 175.803 9.205 175.803 9.755ZM174.769 9.546C174.769 9.16467 174.685 8.83833 174.516 8.567C174.347 8.28833 174.116 8.07933 173.823 7.94C173.537 7.79333 173.218 7.72 172.866 7.72C172.36 7.72 171.927 7.88133 171.568 8.204C171.216 8.52667 171.014 8.974 170.963 9.546H174.769ZM176.75 9.975C176.75 9.35167 176.875 8.809 177.124 8.347C177.374 7.87767 177.718 7.51467 178.158 7.258C178.606 7.00133 179.115 6.873 179.687 6.873C180.428 6.873 181.037 7.05267 181.513 7.412C181.997 7.77133 182.316 8.27 182.47 8.908H181.392C181.29 8.54133 181.088 8.25167 180.787 8.039C180.494 7.82633 180.127 7.72 179.687 7.72C179.115 7.72 178.653 7.918 178.301 8.314C177.949 8.70267 177.773 9.25633 177.773 9.975C177.773 10.701 177.949 11.262 178.301 11.658C178.653 12.054 179.115 12.252 179.687 12.252C180.127 12.252 180.494 12.1493 180.787 11.944C181.081 11.7387 181.282 11.4453 181.392 11.064H182.47C182.309 11.68 181.986 12.175 181.502 12.549C181.018 12.9157 180.413 13.099 179.687 13.099C179.115 13.099 178.606 12.9707 178.158 12.714C177.718 12.4573 177.374 12.0943 177.124 11.625C176.875 11.1557 176.75 10.6057 176.75 9.975ZM189.152 6.972V13H188.151V12.109C187.96 12.417 187.693 12.659 187.348 12.835C187.011 13.0037 186.637 13.088 186.226 13.088C185.757 13.088 185.335 12.9927 184.961 12.802C184.587 12.604 184.29 12.3107 184.07 11.922C183.857 11.5333 183.751 11.0603 183.751 10.503V6.972H184.741V10.371C184.741 10.965 184.891 11.4233 185.192 11.746C185.493 12.0613 185.903 12.219 186.424 12.219C186.959 12.219 187.381 12.054 187.689 11.724C187.997 11.394 188.151 10.9137 188.151 10.283V6.972H189.152ZM191.843 7.951C192.019 7.60633 192.268 7.33867 192.591 7.148C192.921 6.95733 193.321 6.862 193.79 6.862V7.896H193.526C192.404 7.896 191.843 8.50467 191.843 9.722V13H190.842V6.972H191.843V7.951ZM200.446 9.755C200.446 9.94567 200.435 10.1473 200.413 10.36H195.595C195.631 10.954 195.833 11.4197 196.2 11.757C196.574 12.087 197.025 12.252 197.553 12.252C197.985 12.252 198.345 12.153 198.631 11.955C198.924 11.7497 199.129 11.4783 199.247 11.141H200.325C200.163 11.7203 199.841 12.1933 199.357 12.56C198.873 12.9193 198.271 13.099 197.553 13.099C196.981 13.099 196.467 12.9707 196.013 12.714C195.565 12.4573 195.213 12.0943 194.957 11.625C194.7 11.1483 194.572 10.5983 194.572 9.975C194.572 9.35167 194.696 8.80533 194.946 8.336C195.195 7.86667 195.543 7.50733 195.991 7.258C196.445 7.00133 196.966 6.873 197.553 6.873C198.125 6.873 198.631 6.99767 199.071 7.247C199.511 7.49633 199.848 7.841 200.083 8.281C200.325 8.71367 200.446 9.205 200.446 9.755ZM199.412 9.546C199.412 9.16467 199.327 8.83833 199.159 8.567C198.99 8.28833 198.759 8.07933 198.466 7.94C198.18 7.79333 197.861 7.72 197.509 7.72C197.003 7.72 196.57 7.88133 196.211 8.204C195.859 8.52667 195.657 8.974 195.606 9.546H199.412Z" fill="#1A1A1A" />
	<path d="M156.803 20.216C156.803 20.664 156.695 21.084 156.479 21.476C156.271 21.868 155.939 22.184 155.483 22.424C155.035 22.664 154.467 22.784 153.779 22.784H152.375V26H150.695V17.624H153.779C154.427 17.624 154.979 17.736 155.435 17.96C155.891 18.184 156.231 18.492 156.455 18.884C156.687 19.276 156.803 19.72 156.803 20.216ZM153.707 21.428C154.171 21.428 154.515 21.324 154.739 21.116C154.963 20.9 155.075 20.6 155.075 20.216C155.075 19.4 154.619 18.992 153.707 18.992H152.375V21.428H153.707ZM157.564 22.652C157.564 21.98 157.696 21.384 157.96 20.864C158.232 20.344 158.596 19.944 159.052 19.664C159.516 19.384 160.032 19.244 160.6 19.244C161.096 19.244 161.528 19.344 161.896 19.544C162.272 19.744 162.572 19.996 162.796 20.3V19.352H164.488V26H162.796V25.028C162.58 25.34 162.28 25.6 161.896 25.808C161.52 26.008 161.084 26.108 160.588 26.108C160.028 26.108 159.516 25.964 159.052 25.676C158.596 25.388 158.232 24.984 157.96 24.464C157.696 23.936 157.564 23.332 157.564 22.652ZM162.796 22.676C162.796 22.268 162.716 21.92 162.556 21.632C162.396 21.336 162.18 21.112 161.908 20.96C161.636 20.8 161.344 20.72 161.032 20.72C160.72 20.72 160.432 20.796 160.168 20.948C159.904 21.1 159.688 21.324 159.52 21.62C159.36 21.908 159.28 22.252 159.28 22.652C159.28 23.052 159.36 23.404 159.52 23.708C159.688 24.004 159.904 24.232 160.168 24.392C160.44 24.552 160.728 24.632 161.032 24.632C161.344 24.632 161.636 24.556 161.908 24.404C162.18 24.244 162.396 24.02 162.556 23.732C162.716 23.436 162.796 23.084 162.796 22.676ZM172.489 19.352L168.373 29.144H166.585L168.025 25.832L165.361 19.352H167.245L168.961 23.996L170.701 19.352H172.489ZM181.65 19.256C182.466 19.256 183.122 19.508 183.618 20.012C184.122 20.508 184.374 21.204 184.374 22.1V26H182.694V22.328C182.694 21.808 182.562 21.412 182.298 21.14C182.034 20.86 181.674 20.72 181.218 20.72C180.762 20.72 180.398 20.86 180.126 21.14C179.862 21.412 179.73 21.808 179.73 22.328V26H178.05V22.328C178.05 21.808 177.918 21.412 177.654 21.14C177.39 20.86 177.03 20.72 176.574 20.72C176.11 20.72 175.742 20.86 175.47 21.14C175.206 21.412 175.074 21.808 175.074 22.328V26H173.394V19.352H175.074V20.156C175.29 19.876 175.566 19.656 175.902 19.496C176.246 19.336 176.622 19.256 177.03 19.256C177.55 19.256 178.014 19.368 178.422 19.592C178.83 19.808 179.146 20.12 179.37 20.528C179.586 20.144 179.898 19.836 180.306 19.604C180.722 19.372 181.17 19.256 181.65 19.256ZM192.149 22.532C192.149 22.772 192.133 22.988 192.101 23.18H187.241C187.281 23.66 187.449 24.036 187.745 24.308C188.041 24.58 188.405 24.716 188.837 24.716C189.461 24.716 189.905 24.448 190.169 23.912H191.981C191.789 24.552 191.421 25.08 190.877 25.496C190.333 25.904 189.665 26.108 188.873 26.108C188.233 26.108 187.657 25.968 187.145 25.688C186.641 25.4 186.245 24.996 185.957 24.476C185.677 23.956 185.537 23.356 185.537 22.676C185.537 21.988 185.677 21.384 185.957 20.864C186.237 20.344 186.629 19.944 187.133 19.664C187.637 19.384 188.217 19.244 188.873 19.244C189.505 19.244 190.069 19.38 190.565 19.652C191.069 19.924 191.457 20.312 191.729 20.816C192.009 21.312 192.149 21.884 192.149 22.532ZM190.409 22.052C190.401 21.62 190.245 21.276 189.941 21.02C189.637 20.756 189.265 20.624 188.825 20.624C188.409 20.624 188.057 20.752 187.769 21.008C187.489 21.256 187.317 21.604 187.253 22.052H190.409ZM197.059 19.256C197.851 19.256 198.491 19.508 198.979 20.012C199.467 20.508 199.711 21.204 199.711 22.1V26H198.031V22.328C198.031 21.8 197.899 21.396 197.635 21.116C197.371 20.828 197.011 20.684 196.555 20.684C196.091 20.684 195.723 20.828 195.451 21.116C195.187 21.396 195.055 21.8 195.055 22.328V26H193.375V19.352H195.055V20.18C195.279 19.892 195.563 19.668 195.907 19.508C196.259 19.34 196.643 19.256 197.059 19.256ZM203.264 20.732V23.948C203.264 24.172 203.316 24.336 203.42 24.44C203.532 24.536 203.716 24.584 203.972 24.584H204.752V26H203.696C202.28 26 201.572 25.312 201.572 23.936V20.732H200.78V19.352H201.572V17.708H203.264V19.352H204.752V20.732H203.264Z" fill="#1A1A1A" />
	<rect x="214.662" y="0.77944" width="43.6765" height="30.4412" rx="4.63235" fill="white" stroke="#D9D9D9" stroke-width="1.32353" />
	<path fill-rule="evenodd" clip-rule="evenodd" d="M242.558 24.5097C247.514 24.5097 251.532 20.5395 251.532 15.6421C251.532 10.7446 247.514 6.77441 242.558 6.77441C240.336 6.77441 238.304 7.57179 236.737 8.89266C235.169 7.57188 233.137 6.77457 230.916 6.77457C225.959 6.77457 221.941 10.7448 221.941 15.6422C221.941 20.5397 225.959 24.5099 230.916 24.5099C233.137 24.5099 235.17 23.7125 236.737 22.3916C238.304 23.7124 240.336 24.5097 242.558 24.5097Z" fill="#ED0006" />
	<path fill-rule="evenodd" clip-rule="evenodd" d="M236.737 22.3912C238.666 20.7647 239.89 18.3446 239.89 15.6421C239.89 12.9396 238.666 10.5194 236.737 8.89295C238.304 7.57191 240.337 6.77441 242.558 6.77441C247.515 6.77441 251.533 10.7446 251.533 15.6421C251.533 20.5395 247.515 24.5097 242.558 24.5097C240.337 24.5097 238.304 23.7122 236.737 22.3912Z" fill="#F9A000" />
	<path fill-rule="evenodd" clip-rule="evenodd" d="M236.737 22.3918C238.666 20.7653 239.89 18.3451 239.89 15.6425C239.89 12.9398 238.666 10.5196 236.737 8.89307C234.807 10.5196 233.583 12.9398 233.583 15.6425C233.583 18.3451 234.807 20.7653 236.737 22.3918Z" fill="#FF5E00" />
	<defs>
		<clipPath id="clip0_1997_10491">
			<rect width="11" height="11" fill="white" transform="translate(150 4)" />
		</clipPath>
	</defs>
</svg>
