<svg xmlns="http://www.w3.org/2000/svg" width="18" height="19" viewBox="0 0 18 19" fill="none">
  <g clip-path="url(#clip0_2007_10431)">
    <path d="M17.9822 5.79205C17.9401 4.83564 17.7854 4.17812 17.5639 3.60836C17.3353 3.00359 16.9837 2.46213 16.523 2.01201C16.0729 1.55489 15.5278 1.19969 14.9301 0.974702C14.357 0.753147 13.7029 0.598484 12.7465 0.556316C11.783 0.510576 11.4771 0.5 9.03324 0.5C6.58941 0.5 6.28351 0.510576 5.32354 0.552745C4.36713 0.594913 3.70961 0.749713 3.13999 0.971131C2.53508 1.19969 1.99362 1.55132 1.54351 2.01201C1.08639 2.46213 0.731322 3.00716 0.506195 3.60493C0.284641 4.17812 0.129978 4.83207 0.08781 5.78848C0.0420705 6.75203 0.0314941 7.05792 0.0314941 9.50176C0.0314941 11.9456 0.0420705 12.2515 0.0842387 13.2115C0.126407 14.1679 0.281207 14.8254 0.502762 15.3952C0.731322 15.9999 1.08639 16.5414 1.54351 16.9915C1.99362 17.4486 2.53865 17.8038 3.13642 18.0288C3.70961 18.2504 4.36356 18.405 5.3201 18.4472C6.27994 18.4895 6.58597 18.4999 9.0298 18.4999C11.4736 18.4999 11.7795 18.4895 12.7395 18.4472C13.6959 18.405 14.3534 18.2504 14.9231 18.0288C16.1327 17.5611 17.0892 16.6047 17.5568 15.3952C17.7783 14.822 17.9331 14.1679 17.9752 13.2115C18.0174 12.2515 18.028 11.9456 18.028 9.50176C18.028 7.05792 18.0244 6.75203 17.9822 5.79205ZM16.3613 13.1411C16.3226 14.0202 16.1749 14.4949 16.0518 14.8114C15.7494 15.5956 15.127 16.2179 14.3429 16.5204C14.0264 16.6434 13.5483 16.7911 12.6726 16.8297C11.7232 16.872 11.4385 16.8824 9.03681 16.8824C6.63514 16.8824 6.34684 16.872 5.40087 16.8297C4.52179 16.7911 4.04709 16.6434 3.73062 16.5204C3.34039 16.3761 2.98519 16.1476 2.69688 15.8487C2.398 15.5568 2.16944 15.2052 2.02521 14.815C1.90214 14.4985 1.75448 14.0202 1.71589 13.1447C1.67358 12.1953 1.66314 11.9104 1.66314 9.50876C1.66314 7.10709 1.67358 6.81878 1.71589 5.87295C1.75448 4.99387 1.90214 4.51917 2.02521 4.2027C2.16944 3.81234 2.398 3.45727 2.70045 3.16883C2.9922 2.86994 3.34383 2.64138 3.73419 2.49729C4.05066 2.37422 4.52893 2.22656 5.40444 2.18783C6.35384 2.14566 6.63872 2.13508 9.04024 2.13508C11.4455 2.13508 11.7302 2.14566 12.6762 2.18783C13.5553 2.22656 14.03 2.37422 14.3464 2.49729C14.7367 2.64138 15.0919 2.86994 15.3802 3.16883C15.6791 3.46071 15.9076 3.81234 16.0518 4.2027C16.1749 4.51917 16.3226 4.99731 16.3613 5.87295C16.4035 6.82236 16.414 7.10709 16.414 9.50876C16.414 11.9104 16.4035 12.1917 16.3613 13.1411Z" fill="#B3B3B3"/>
    <path d="M9.03337 4.87793C6.48061 4.87793 4.40942 6.94898 4.40942 9.50188C4.40942 12.0548 6.48061 14.1258 9.03337 14.1258C11.5863 14.1258 13.6573 12.0548 13.6573 9.50188C13.6573 6.94898 11.5863 4.87793 9.03337 4.87793ZM9.03337 12.5013C7.37727 12.5013 6.03393 11.1581 6.03393 9.50188C6.03393 7.84564 7.37727 6.50244 9.03337 6.50244C10.6896 6.50244 12.0328 7.84564 12.0328 9.50188C12.0328 11.1581 10.6896 12.5013 9.03337 12.5013Z" fill="#B3B3B3"/>
    <path d="M14.9199 4.69521C14.9199 5.29133 14.4365 5.77469 13.8402 5.77469C13.2441 5.77469 12.7607 5.29133 12.7607 4.69521C12.7607 4.09894 13.2441 3.61572 13.8402 3.61572C14.4365 3.61572 14.9199 4.09894 14.9199 4.69521Z" fill="#B3B3B3"/>
  </g>
  <defs>
    <clipPath id="clip0_2007_10431">
      <rect width="18" height="18" fill="white" transform="translate(0 0.5)"/>
    </clipPath>
  </defs>
</svg>