<svg xmlns="http://www.w3.org/2000/svg" width="18" height="19" viewBox="0 0 18 19" fill="none">
  <g clip-path="url(#clip0_2007_10427)">
    <path d="M9.24471 0.5C4.31136 0.5 1.68774 3.66139 1.68774 7.10855C1.68774 8.70724 2.58103 10.7008 4.01097 11.3331C4.22811 11.431 4.34624 11.3894 4.39462 11.188C4.43737 11.035 4.62525 10.2981 4.71638 9.95042C4.74451 9.83904 4.72988 9.74229 4.63988 9.63766C4.16511 9.08864 3.78821 8.08847 3.78821 7.15017C3.78821 4.74594 5.69967 2.41146 8.9522 2.41146C11.7648 2.41146 13.7325 4.23854 13.7325 6.85204C13.7325 9.80529 12.1698 11.8484 10.1391 11.8484C9.0152 11.8484 8.17816 10.9663 8.44367 9.87505C8.76431 8.57561 9.39321 7.1783 9.39321 6.24113C9.39321 5.40072 8.91844 4.70544 7.94865 4.70544C6.80447 4.70544 5.87631 5.83837 5.87631 7.35943C5.87631 8.32585 6.21832 8.97838 6.21832 8.97838C6.21832 8.97838 5.08652 13.5506 4.87614 14.4045C4.52062 15.8502 4.92451 18.1914 4.95939 18.3928C4.98077 18.5042 5.10565 18.5391 5.1754 18.4479C5.28678 18.3017 6.65484 16.3497 7.03848 14.9389C7.17799 14.4248 7.75064 12.34 7.75064 12.34C8.12753 13.0207 9.21546 13.5911 10.3743 13.5911C13.8214 13.5911 16.3123 10.5613 16.3123 6.80141C16.2999 3.19675 13.215 0.5 9.24471 0.5Z" fill="#B3B3B3"/>
  </g>
  <defs>
    <clipPath id="clip0_2007_10427">
      <rect width="18" height="18" fill="white" transform="translate(0 0.5)"/>
    </clipPath>
  </defs>
</svg>