<svg xmlns="http://www.w3.org/2000/svg" width="18" height="19" viewBox="0 0 18 19" fill="none">
  <g clip-path="url(#clip0_2007_10423)">
    <path d="M18 3.91888C17.3306 4.2125 16.6174 4.40713 15.8737 4.50163C16.6388 4.04488 17.2226 3.32713 17.4971 2.462C16.7839 2.88725 15.9964 3.18763 15.1571 3.35525C14.4799 2.63413 13.5146 2.1875 12.4616 2.1875C10.4186 2.1875 8.77387 3.84575 8.77387 5.87863C8.77387 6.17113 8.79862 6.45238 8.85938 6.72013C5.7915 6.5705 3.07687 5.10013 1.25325 2.86025C0.934875 3.41263 0.748125 4.04488 0.748125 4.7255C0.748125 6.0035 1.40625 7.13638 2.38725 7.79225C1.79437 7.781 1.21275 7.60888 0.72 7.33775C0.72 7.349 0.72 7.36363 0.72 7.37825C0.72 9.1715 1.99912 10.661 3.6765 11.0041C3.37612 11.0863 3.04875 11.1256 2.709 11.1256C2.47275 11.1256 2.23425 11.1121 2.01038 11.0626C2.4885 12.524 3.84525 13.5984 5.4585 13.6333C4.203 14.6154 2.60888 15.2071 0.883125 15.2071C0.5805 15.2071 0.29025 15.1936 0 15.1565C1.63462 16.2106 3.57188 16.8125 5.661 16.8125C12.4515 16.8125 16.164 11.1875 16.164 6.31175C16.164 6.14863 16.1584 5.99113 16.1505 5.83475C16.8829 5.315 17.4982 4.66588 18 3.91888Z" fill="#B3B3B3"/>
  </g>
  <defs>
    <clipPath id="clip0_2007_10423">
      <rect width="18" height="18" fill="white" transform="translate(0 0.5)"/>
    </clipPath>
  </defs>
</svg>