<svg xmlns="http://www.w3.org/2000/svg" width="21" height="21" viewBox="0 0 21 21" fill="none">
	<g clip-path="url(#clip0_109_8)">
		<path d="M19.7988 10.1111C19.7988 15.4614 15.4616 19.7986 10.1113 19.7986C4.76105 19.7986 0.423828 15.4614 0.423828 10.1111C0.423828 4.76081 4.76105 0.423584 10.1113 0.423584C15.4616 0.423584 19.7988 4.76081 19.7988 10.1111ZM8.99078 15.2405L16.1783 8.05304C16.4223 7.80898 16.4223 7.41323 16.1783 7.16917L15.2944 6.2853C15.0504 6.0412 14.6546 6.0412 14.4105 6.2853L8.54883 12.1469L5.81215 9.41026C5.56809 9.1662 5.17234 9.1662 4.92824 9.41026L4.04437 10.2941C3.80031 10.5382 3.80031 10.9339 4.04437 11.178L8.10688 15.2405C8.35098 15.4846 8.74668 15.4846 8.99078 15.2405Z" fill="#55B938" />
	</g>
	<defs>
		<clipPath id="clip0_109_8">
			<rect width="20" height="20" fill="white" transform="translate(0.111328 0.111084)" />
		</clipPath>
	</defs>
</svg>
